<svg width="66" height="66" viewBox="0 0 66 66" fill="none" xmlns="http://www.w3.org/2000/svg">
<path d="M19.25 41.25H27.5C28.2293 41.25 28.9288 40.9603 29.4445 40.4445C29.9603 39.9288 30.25 39.2293 30.25 38.5C30.25 37.7707 29.9603 37.0712 29.4445 36.5555C28.9288 36.0397 28.2293 35.75 27.5 35.75H19.25C18.5207 35.75 17.8212 36.0397 17.3055 36.5555C16.7897 37.0712 16.5 37.7707 16.5 38.5C16.5 39.2293 16.7897 39.9288 17.3055 40.4445C17.8212 40.9603 18.5207 41.25 19.25 41.25ZM52.25 13.75H13.75C11.562 13.75 9.46354 14.6192 7.91637 16.1664C6.36919 17.7135 5.5 19.812 5.5 22V46.75C5.5 48.938 6.36919 51.0365 7.91637 52.5836C9.46354 54.1308 11.562 55 13.75 55H52.25C54.438 55 56.5365 54.1308 58.0836 52.5836C59.6308 51.0365 60.5 48.938 60.5 46.75V22C60.5 19.812 59.6308 17.7135 58.0836 16.1664C56.5365 14.6192 54.438 13.75 52.25 13.75ZM55 46.75C55 47.4793 54.7103 48.1788 54.1945 48.6945C53.6788 49.2103 52.9793 49.5 52.25 49.5H13.75C13.0207 49.5 12.3212 49.2103 11.8055 48.6945C11.2897 48.1788 11 47.4793 11 46.75V30.25H55V46.75ZM55 24.75H11V22C11 21.2707 11.2897 20.5712 11.8055 20.0555C12.3212 19.5397 13.0207 19.25 13.75 19.25H52.25C52.9793 19.25 53.6788 19.5397 54.1945 20.0555C54.7103 20.5712 55 21.2707 55 22V24.75Z" fill="#3FABDD"/>
</svg>
