<?xml version="1.0" encoding="UTF-8"?>
<svg version="1.1" xmlns="http://www.w3.org/2000/svg" width="256" height="256">
<path d="M0 0 C0.70916571 -0.00453111 1.41833142 -0.00906223 2.148987 -0.01373065 C4.51945057 -0.02636598 6.88968414 -0.02475486 9.26017761 -0.02310181 C10.96220189 -0.02908763 12.66422346 -0.0358933 14.36624146 -0.04345703 C18.98618443 -0.06111944 23.6060533 -0.06581253 28.22602677 -0.0670886 C31.11382393 -0.0685107 34.00160228 -0.07278144 36.88939476 -0.07808304 C46.96807933 -0.0965846 57.046711 -0.10475355 67.12541199 -0.10317993 C76.51340452 -0.10197872 85.90116708 -0.1230767 95.28910142 -0.15466726 C103.35466428 -0.18083875 111.42015207 -0.19154685 119.48575705 -0.19026911 C124.30050122 -0.18975971 129.11504102 -0.19543105 133.92974281 -0.21662521 C138.45982406 -0.23602211 142.98950631 -0.23612219 147.51960182 -0.22159195 C149.17879826 -0.2195045 150.83801977 -0.22420096 152.49717331 -0.23631287 C169.57438671 -0.35286679 169.57438671 -0.35286679 177.08903503 6.23226929 C177.62786316 6.88324585 178.16669128 7.53422241 178.72184753 8.20492554 C179.27614441 8.85332397 179.83044128 9.50172241 180.40153503 10.16976929 C183.98405447 15.36926372 184.1440748 20.01443043 184.13737488 26.12509155 C184.1440921 27.00697144 184.15080933 27.88885132 184.1577301 28.79745483 C184.1766912 31.70547146 184.1806328 34.61325724 184.18278503 37.52133179 C184.1892123 39.54484655 184.19594061 41.56836037 184.20295715 43.59187317 C184.21492377 47.82936764 184.21863841 52.0667806 184.217453 56.30429077 C184.2172494 61.73746888 184.24459721 67.17012636 184.27899742 72.60318089 C184.30121387 76.78016062 184.30529222 80.95701377 184.30423355 85.13404655 C184.30659568 87.13755024 184.31545349 89.14105709 184.33089828 91.14450264 C184.35045985 93.94309385 184.34476001 96.74054511 184.33268738 99.53915405 C184.34392639 100.36783493 184.35516541 101.19651581 184.366745 102.05030823 C184.32657875 105.7081371 184.18575106 107.82056521 181.94148254 110.77973938 C179.67411998 112.39010295 178.59726058 112.81040074 175.84684753 112.76742554 C174.85684753 112.78289429 174.85684753 112.78289429 173.84684753 112.79867554 C170.83154301 111.99773527 169.75166854 110.73657868 167.84684753 108.26742554 C167.45414052 105.44260204 167.30245564 103.00507472 167.33268738 100.18173218 C167.32556229 99.36987961 167.31843719 98.55802704 167.31109619 97.72157288 C167.29180984 95.0399952 167.30009607 92.35920585 167.30778503 89.67758179 C167.29787937 87.81196438 167.28593861 85.94635677 167.27204895 84.08076477 C167.23966052 79.16880135 167.22929278 74.25706091 167.22520447 69.34500122 C167.21645477 61.48633795 167.18093366 53.62785819 167.13302994 45.76934624 C167.12044809 43.02564023 167.12120274 40.2821659 167.12330627 37.53843689 C167.11672458 35.85312726 167.10971805 34.16781922 167.10221863 32.48251343 C167.10634262 31.72131195 167.11046661 30.96011047 167.11471558 30.17584229 C167.08404027 26.1418248 166.98683253 22.75262671 164.84684753 19.26742554 C160.91372761 17.24068588 157.58981732 17.01628713 153.20500183 17.01345825 C152.22383282 17.00877828 152.22383282 17.00877828 151.22284222 17.00400376 C149.03882427 16.99604915 146.85508613 17.00233735 144.67106628 17.00863647 C143.10210508 17.00592548 141.53314515 17.00236394 139.96418762 16.99801636 C135.7080536 16.98890297 131.4520166 16.99243228 127.19588089 16.99877453 C122.74058522 17.00383994 118.28529783 16.99914157 113.83000183 16.9960022 C106.34829722 16.99236414 98.86663209 16.99715746 91.38493347 17.00668335 C82.73652958 17.01756759 74.08821999 17.0140419 65.43981838 17.00303054 C58.0129411 16.99395312 50.5860922 16.99267462 43.15921116 16.99790788 C38.72413144 17.00102507 34.28909603 17.00144379 29.85401917 16.9948349 C25.68435123 16.98905546 21.51480481 16.9930693 17.34514999 17.00462341 C15.81531857 17.00726679 14.28547691 17.00651039 12.75564957 17.00209808 C10.66652628 16.99662842 8.57779179 17.00349369 6.48869324 17.01345825 C5.31990128 17.0142123 4.15110931 17.01496635 2.94689941 17.01574326 C-0.26045866 17.27613735 -2.3759044 17.63790385 -5.15315247 19.26742554 C-7.37817449 23.05960465 -7.40432711 26.5806316 -7.40711975 30.90927124 C-7.41023973 31.56338391 -7.41335971 32.21749659 -7.41657424 32.89143085 C-7.42452885 35.0754488 -7.41824065 37.25918694 -7.41194153 39.44320679 C-7.41465252 41.01216799 -7.41821406 42.58112793 -7.42256165 44.15008545 C-7.43167503 48.40621947 -7.42814572 52.66225647 -7.42180347 56.91839218 C-7.41673806 61.37368785 -7.42143644 65.82897524 -7.42457581 70.28427124 C-7.42821387 77.76597586 -7.42342054 85.24764098 -7.41389465 92.7293396 C-7.40301041 101.37774349 -7.4065361 110.02605308 -7.41754746 118.67445469 C-7.42662489 126.10133197 -7.42790339 133.52818087 -7.42267013 140.95506191 C-7.41955294 145.39014163 -7.41913421 149.82517704 -7.4257431 154.26025391 C-7.43152254 158.42992185 -7.42750871 162.59946826 -7.41595459 166.76912308 C-7.41331121 168.2989545 -7.41406761 169.82879616 -7.41847992 171.3586235 C-7.42394958 173.44774679 -7.41708432 175.53648128 -7.40711975 177.62557983 C-7.40598867 179.37876778 -7.40598867 179.37876778 -7.40483475 181.16737366 C-7.15049485 184.30016022 -6.58849442 186.48198045 -5.15315247 189.26742554 C-1.04706121 191.78864978 3.38380337 191.54814154 8.06193542 191.52279663 C8.87554031 191.52641708 9.6891452 191.53003754 10.52740479 191.5337677 C12.28815657 191.54064402 14.04892959 191.54317045 15.80969429 191.54182053 C18.5963492 191.54085372 21.38262008 191.55381429 24.16921997 191.57080078 C32.08980885 191.61703674 40.0103568 191.64169249 47.93107605 191.64828491 C52.78047838 191.65329395 57.62947693 191.67750796 62.4787426 191.7136116 C64.32590246 191.72341927 66.17311779 191.72573628 68.0202961 191.72043991 C70.60102302 191.71338473 73.18054153 191.73061706 75.76115417 191.75326538 C76.52437988 191.74509293 77.28760559 191.73692047 78.07395935 191.72850037 C81.59341505 191.78352132 83.49339585 191.99475627 86.31900024 194.17456055 C87.97556314 196.44374184 88.39021753 197.4917461 88.34684753 200.26742554 C88.36231628 201.25742554 88.36231628 201.25742554 88.37809753 202.26742554 C87.57054957 205.30760609 86.35573009 206.36042337 83.84684753 208.26742554 C80.83117579 208.66201714 78.18125972 208.81463206 75.16618347 208.78500366 C74.29087479 208.79201294 73.4155661 208.79902222 72.51373291 208.8062439 C69.61924018 208.82385182 66.7257253 208.81218718 63.83122253 208.79867554 C61.81586011 208.80137062 59.80049896 208.80525317 57.78514099 208.81027222 C53.55835101 208.81617187 49.33189901 208.80759277 45.10514832 208.78890991 C39.70029996 208.76617872 34.29624867 208.7792036 28.8914299 208.80319977 C24.72711754 208.81769504 20.56299219 208.81303364 16.39867401 208.8026886 C14.40686701 208.80002857 12.41504279 208.80326547 10.42325592 208.81260681 C7.63008099 208.82282721 4.83817107 208.80719235 2.04508972 208.78500366 C1.2292189 208.79310059 0.41334808 208.80119751 -0.42724609 208.80953979 C-7.13332489 208.7114215 -12.3288441 206.74238566 -17.39533997 202.30258179 C-18.20358215 201.32611694 -18.20358215 201.32611694 -19.02815247 200.32992554 C-19.58244934 199.6815271 -20.13674622 199.03312866 -20.70783997 198.36508179 C-23.91854182 193.70522532 -24.40576196 189.72003412 -24.420578 184.11427307 C-24.42510912 183.40510736 -24.42964023 182.69594165 -24.43430865 181.96528608 C-24.44694398 179.5948225 -24.44533286 177.22458893 -24.44367981 174.85409546 C-24.44966564 173.15207118 -24.45647131 171.45004961 -24.46403503 169.74803162 C-24.48169744 165.12808864 -24.48639054 160.50821977 -24.48766661 155.8882463 C-24.48908871 153.00044914 -24.49335944 150.11267079 -24.49866104 147.22487831 C-24.51716261 137.14619375 -24.52533156 127.06756207 -24.52375793 116.98886108 C-24.52255673 107.60086855 -24.54365471 98.21310599 -24.57524526 88.82517165 C-24.60141675 80.75960879 -24.61212485 72.694121 -24.61084712 64.62851602 C-24.61033771 59.81377185 -24.61600905 54.99923205 -24.63720322 50.18453026 C-24.65660012 45.65444901 -24.65670019 41.12476676 -24.64216995 36.59467125 C-24.6400825 34.93547481 -24.64477896 33.27625331 -24.65689087 31.61709976 C-24.77344479 14.53988636 -24.77344479 14.53988636 -18.18830872 7.02523804 C-17.53733215 6.48640991 -16.88635559 5.94758179 -16.21565247 5.39242554 C-15.56725403 4.83812866 -14.91885559 4.28383179 -14.25080872 3.71273804 C-9.59095225 0.50203619 -5.60576104 0.01481604 0 0 Z " fill="#91C730" transform="translate(48.15315246582031,23.732574462890625)"/>
<path d="M0 0 C8.71551688 6.40095654 15.1664335 15.43791351 17.125 26.25 C17.6926524 35.43068598 17.04740667 43.48891092 14.125 52.25 C14.56779297 52.60715088 15.01058594 52.96430176 15.46679688 53.33227539 C18.99895453 56.18400569 22.52157654 59.04641011 26.03125 61.92578125 C28.3129334 63.79445502 30.59730988 65.59969097 32.96875 67.35546875 C37.77780502 71.02324441 37.77780502 71.02324441 38.76953125 74.52734375 C39.05616261 78.64017054 38.66319804 80.60099648 36 83.8125 C32.59014637 85.51742682 30.90377503 85.68264903 27.125 85.25 C24.83844085 83.84401562 22.96980276 82.51713245 20.9375 80.8125 C20.38231689 80.36600098 19.82713379 79.91950195 19.25512695 79.45947266 C17.53358337 78.06979585 15.82911721 76.66096207 14.125 75.25 C13.02965652 74.35943256 11.93333328 73.47006853 10.8359375 72.58203125 C8.25458589 70.48426619 5.68490014 68.37384501 3.125 66.25 C2.33996094 66.65992188 1.55492187 67.06984375 0.74609375 67.4921875 C-0.30449219 68.03101563 -1.35507813 68.56984375 -2.4375 69.125 C-3.47003906 69.65867187 -4.50257813 70.19234375 -5.56640625 70.7421875 C-15.37357898 75.211572 -26.45407218 76.10531363 -36.75 72.625 C-47.83246566 67.92235137 -55.95197431 61.23504554 -60.75 50.0625 C-65.44227921 38.20750318 -64.92226122 26.96991164 -59.875 15.25 C-54.12411239 4.99380874 -46.54098296 -1.39863378 -35.4375 -5.1875 C-22.96651661 -8.55685341 -11.08023631 -6.89688178 0 0 Z M-40.8125 18 C-45.44352513 23.88708147 -47.68510187 29.68904922 -46.875 37.25 C-45.23388611 44.56848085 -40.97970331 50.16062499 -35.02734375 54.640625 C-29.58780531 57.8127583 -24.02997171 58.21733213 -17.875 57.25 C-9.18819611 54.53771735 -4.91793192 49.50597332 -0.5 41.875 C1.1685785 34.86697031 0.82885747 27.53612429 -2.875 21.25 C-7.27298754 15.71919748 -12.70290532 11.33668101 -19.875 10.25 C-28.0174608 9.43575392 -35.23371741 12.00841109 -40.8125 18 Z " fill="#91C72F" transform="translate(193.875,136.75)"/>
<path d="M0 0 C0.95618225 -0.0071553 1.9123645 -0.01431061 2.89752197 -0.02168274 C3.95003143 -0.02437164 5.00254089 -0.02706055 6.08694458 -0.02983093 C7.19271851 -0.03640213 8.29849243 -0.04297333 9.43777466 -0.04974365 C13.1087551 -0.06950693 16.77969461 -0.08114484 20.45071411 -0.09111023 C21.70159946 -0.09518576 22.95248482 -0.09926128 24.24127579 -0.10346031 C30.17650641 -0.12217833 36.11172395 -0.1367426 42.04697692 -0.14507228 C48.90002384 -0.1548487 55.7527481 -0.18117897 62.6056813 -0.22157317 C68.53982968 -0.25535248 74.4738988 -0.26721561 80.4081459 -0.27127647 C82.93358679 -0.27615996 85.45902379 -0.2878236 87.9844017 -0.30631447 C91.51363861 -0.33055313 95.04202566 -0.32976868 98.57131958 -0.32279968 C99.61978058 -0.33560974 100.66824158 -0.3484198 101.74847412 -0.36161804 C108.7978872 -0.31072522 108.7978872 -0.31072522 112.07647705 1.96170044 C114.06731282 5.10986034 114.45852661 7.43202339 114.45852661 11.14717102 C112.69211489 13.94906548 111.42802839 15.66242013 108.45852661 17.14717102 C106.97484572 17.2476827 105.48677133 17.28656927 103.99971008 17.29434204 C103.0618013 17.30149734 102.12389252 17.30865265 101.15756226 17.31602478 C100.12532532 17.31871368 99.09308838 17.32140259 98.02957153 17.32417297 C96.94491104 17.33074417 95.86025055 17.33731537 94.74272156 17.34408569 C91.14147885 17.36384987 87.54027789 17.37548772 83.93899536 17.38545227 C82.71142328 17.3895278 81.4838512 17.39360332 80.21907997 17.39780235 C74.3933037 17.41652161 68.56754391 17.43108494 62.74174327 17.43941432 C56.01831455 17.44918591 49.29521514 17.47550287 42.57190245 17.51591522 C36.74773477 17.54972075 30.92367754 17.56155989 25.09942055 17.56561852 C22.62225422 17.57049826 20.14509175 17.58215142 17.66798973 17.60065651 C14.20361301 17.62492994 10.7401005 17.62410417 7.27566528 17.61714172 C5.73641891 17.63635681 5.73641891 17.63635681 4.16607666 17.65596008 C-0.20274962 17.62390456 -2.82403845 17.56527831 -6.65504456 15.3326416 C-9.28799085 12.28231361 -9.54147339 10.13980761 -9.54147339 6.14717102 C-7.21298124 1.0466644 -5.42205545 0.02779516 0 0 Z " fill="#91C730" transform="translate(75.54147338867188,76.85282897949219)"/>
<path d="M0 0 C1.13904785 -0.00478363 2.2780957 -0.00956726 3.45166016 -0.01449585 C5.85906353 -0.01789719 8.26651295 -0.00867865 10.67382812 0.01220703 C14.36172335 0.03896617 18.04657461 0.01246381 21.734375 -0.01953125 C24.07292339 -0.0162272 26.41146989 -0.00982107 28.75 0 C29.85424316 -0.01012115 30.95848633 -0.02024231 32.09619141 -0.03067017 C39.71326857 0.08612641 39.71326857 0.08612641 43.0703125 3.01806641 C44.67615062 6.2748167 44.97295662 8.0763228 44.375 11.6640625 C43.0703125 14.31005859 43.0703125 14.31005859 40.375 16.6640625 C36.50951932 17.43750046 32.68103441 17.36415566 28.75 17.328125 C27.61095215 17.33290863 26.4719043 17.33769226 25.29833984 17.34262085 C22.89093647 17.34602219 20.48348705 17.33680365 18.07617188 17.31591797 C14.38827665 17.28915883 10.70342539 17.31566119 7.015625 17.34765625 C4.67707661 17.3443522 2.33853011 17.33794607 0 17.328125 C-1.10424316 17.33824615 -2.20848633 17.34836731 -3.34619141 17.35879517 C-10.96326857 17.24199859 -10.96326857 17.24199859 -14.3203125 14.31005859 C-15.92615062 11.0533083 -16.22295662 9.2518022 -15.625 5.6640625 C-12.2951552 -1.08909206 -6.65215194 -0.06097159 0 0 Z " fill="#91C72F" transform="translate(81.625,119.3359375)"/>
</svg>
