<svg width="451" height="386" viewBox="0 0 451 386" fill="none" xmlns="http://www.w3.org/2000/svg">
<path d="M0 330.45C0 308.911 17.4609 291.45 39 291.45H100.153V368C100.153 377.941 92.0937 386 82.1526 386H0V330.45Z" fill="#AEE44C"/>
<path d="M450.336 330.45C450.336 308.911 432.876 291.45 411.336 291.45H350.184V368C350.184 377.941 358.243 386 368.184 386H450.336V330.45Z" fill="#AEE44C"/>
<path d="M105.055 361.678C105.055 352.289 112.666 344.678 122.055 344.678H327.581C336.97 344.678 344.581 352.289 344.581 361.678V365.689H105.055V361.678Z" fill="#91C730"/>
<rect x="27.9102" y="75.6328" width="394.517" height="281.057" rx="23" fill="white" stroke="#91C730" stroke-width="18"/>
<path d="M58.0596 185V166.52H65.7316C66.8703 166.52 67.8876 166.623 68.7836 166.828C69.6796 167.015 70.445 167.304 71.0796 167.696C71.733 168.088 72.2276 168.601 72.5636 169.236C72.9183 169.852 73.0956 170.589 73.0956 171.448C73.0956 172.176 72.937 172.811 72.6196 173.352C72.321 173.893 71.845 174.332 71.1916 174.668C70.557 175.004 69.717 175.237 68.6716 175.368V175.788C70.445 175.919 71.7423 176.367 72.5636 177.132C73.4036 177.879 73.8236 178.887 73.8236 180.156C73.8236 181.22 73.5436 182.116 72.9836 182.844C72.4423 183.553 71.621 184.095 70.5196 184.468C69.4183 184.823 68.0556 185 66.4316 185H58.0596ZM61.8956 181.752H66.3756C67.5703 181.752 68.457 181.575 69.0356 181.22C69.6143 180.847 69.9036 180.277 69.9036 179.512C69.9036 178.635 69.5396 177.981 68.8116 177.552C68.0836 177.104 66.9823 176.88 65.5076 176.88H61.8956V181.752ZM61.8956 174.36H64.9196C66.3756 174.36 67.4396 174.164 68.1116 173.772C68.8023 173.361 69.1476 172.764 69.1476 171.98C69.1476 171.196 68.8396 170.627 68.2236 170.272C67.6076 169.899 66.665 169.712 65.3956 169.712H61.8956V174.36ZM81.9609 185.392C80.2436 185.392 78.9462 184.813 78.0689 183.656C77.2102 182.48 76.7809 180.697 76.7809 178.308V170.3H80.8129V177.804C80.8129 179.241 81.0276 180.315 81.4569 181.024C81.8862 181.715 82.5396 182.06 83.4169 182.06C83.9396 182.06 84.3969 181.929 84.7889 181.668C85.1809 181.407 85.5169 181.043 85.7969 180.576C86.0769 180.109 86.2822 179.559 86.4129 178.924C86.5622 178.289 86.6462 177.608 86.6649 176.88V170.3H90.6969V179.008V185H87.4489L87.4209 180.408H86.9169C86.6369 181.565 86.2822 182.517 85.8529 183.264C85.4422 183.992 84.9102 184.533 84.2569 184.888C83.6222 185.224 82.8569 185.392 81.9609 185.392ZM94.3949 185V170.3H98.4269V185H94.3949ZM96.4389 168.088C95.6549 168.088 95.0482 167.929 94.6189 167.612C94.2082 167.276 94.0029 166.791 94.0029 166.156C94.0029 165.503 94.2082 165.008 94.6189 164.672C95.0482 164.336 95.6549 164.168 96.4389 164.168C97.2415 164.168 97.8482 164.336 98.2589 164.672C98.6882 165.008 98.9029 165.503 98.9029 166.156C98.9029 166.772 98.6882 167.248 98.2589 167.584C97.8482 167.92 97.2415 168.088 96.4389 168.088ZM102.16 185V164.98H106.137V185H102.16ZM115.359 185.336C113.716 185.336 112.503 184.907 111.719 184.048C110.953 183.171 110.571 181.78 110.571 179.876V173.464H108.443L108.499 170.3H109.983C110.561 170.3 110.991 170.216 111.271 170.048C111.551 169.88 111.719 169.572 111.775 169.124L112.139 167.024H114.435V170.3H118.159V173.576H114.435V179.708C114.435 180.38 114.593 180.865 114.911 181.164C115.228 181.463 115.713 181.612 116.367 181.612C116.721 181.612 117.057 181.575 117.375 181.5C117.711 181.425 118 181.304 118.243 181.136V184.888C117.664 185.075 117.132 185.196 116.647 185.252C116.161 185.308 115.732 185.336 115.359 185.336ZM128.601 185V175.592H126.277V172.624L130.197 172.792V172.26C129.543 172.111 129.002 171.877 128.573 171.56C128.162 171.224 127.863 170.823 127.677 170.356C127.49 169.889 127.397 169.395 127.397 168.872C127.397 168.069 127.602 167.379 128.013 166.8C128.423 166.203 129.002 165.745 129.749 165.428C130.495 165.092 131.373 164.924 132.381 164.924C133.239 164.924 134.014 165.036 134.705 165.26C135.414 165.465 135.983 165.727 136.413 166.044L136.161 169.684C135.713 169.367 135.209 169.105 134.649 168.9C134.089 168.695 133.557 168.592 133.053 168.592C132.493 168.592 132.026 168.741 131.653 169.04C131.298 169.339 131.121 169.824 131.121 170.496C131.121 170.963 131.214 171.336 131.401 171.616C131.606 171.877 131.849 172.073 132.129 172.204C132.427 172.316 132.717 172.391 132.997 172.428H136.357V175.592H132.521V185H128.601ZM145.383 185.392C143.908 185.392 142.611 185.103 141.491 184.524C140.371 183.927 139.494 183.059 138.859 181.92C138.224 180.763 137.907 179.325 137.907 177.608C137.907 175.891 138.224 174.463 138.859 173.324C139.512 172.185 140.399 171.336 141.519 170.776C142.658 170.197 143.946 169.908 145.383 169.908C146.858 169.908 148.155 170.197 149.275 170.776C150.414 171.355 151.3 172.223 151.935 173.38C152.588 174.519 152.915 175.947 152.915 177.664C152.915 179.4 152.579 180.847 151.907 182.004C151.254 183.143 150.358 183.992 149.219 184.552C148.099 185.112 146.82 185.392 145.383 185.392ZM145.523 182.396C146.251 182.396 146.858 182.228 147.343 181.892C147.847 181.556 148.22 181.052 148.463 180.38C148.724 179.689 148.855 178.859 148.855 177.888C148.855 176.861 148.715 175.993 148.435 175.284C148.174 174.556 147.782 174.005 147.259 173.632C146.736 173.24 146.074 173.044 145.271 173.044C144.58 173.044 143.983 173.212 143.479 173.548C142.975 173.865 142.592 174.369 142.331 175.06C142.07 175.732 141.939 176.563 141.939 177.552C141.939 179.139 142.256 180.343 142.891 181.164C143.526 181.985 144.403 182.396 145.523 182.396ZM155.782 185V177.888V170.3H159.114L159.142 175.312H159.674C159.823 174.061 160.075 173.044 160.43 172.26C160.803 171.476 161.316 170.897 161.97 170.524C162.623 170.151 163.435 169.964 164.406 169.964C164.574 169.964 164.751 169.973 164.938 169.992C165.143 169.992 165.376 170.02 165.638 170.076L165.47 174.36C165.19 174.229 164.882 174.136 164.546 174.08C164.21 174.024 163.911 173.996 163.65 173.996C162.922 173.996 162.296 174.164 161.774 174.5C161.251 174.836 160.822 175.321 160.486 175.956C160.168 176.572 159.954 177.328 159.842 178.224V185H155.782ZM182.579 185.392C181.235 185.392 180.031 185.187 178.967 184.776C177.903 184.347 176.989 183.731 176.223 182.928C175.477 182.107 174.898 181.108 174.487 179.932C174.095 178.737 173.899 177.375 173.899 175.844C173.899 173.66 174.282 171.859 175.047 170.44C175.813 169.003 176.858 167.929 178.183 167.22C179.527 166.492 181.039 166.128 182.719 166.128C184.026 166.128 185.211 166.343 186.275 166.772C187.339 167.183 188.245 167.799 188.991 168.62C189.757 169.423 190.345 170.431 190.755 171.644C191.166 172.839 191.371 174.211 191.371 175.76C191.371 177.347 191.166 178.737 190.755 179.932C190.345 181.127 189.747 182.135 188.963 182.956C188.198 183.759 187.274 184.365 186.191 184.776C185.109 185.187 183.905 185.392 182.579 185.392ZM182.691 182.172C183.681 182.172 184.511 181.929 185.183 181.444C185.855 180.959 186.369 180.259 186.723 179.344C187.078 178.429 187.255 177.309 187.255 175.984C187.255 174.603 187.069 173.427 186.695 172.456C186.341 171.485 185.818 170.748 185.127 170.244C184.437 169.721 183.597 169.46 182.607 169.46C181.637 169.46 180.806 169.712 180.115 170.216C179.443 170.701 178.921 171.411 178.547 172.344C178.193 173.277 178.015 174.435 178.015 175.816C178.015 176.824 178.118 177.729 178.323 178.532C178.547 179.316 178.855 179.979 179.247 180.52C179.639 181.061 180.125 181.472 180.703 181.752C181.282 182.032 181.945 182.172 182.691 182.172ZM194.582 185V176.096V170.3H197.886L197.858 174.696H198.418C198.661 173.632 199.006 172.745 199.454 172.036C199.902 171.327 200.462 170.795 201.134 170.44C201.825 170.085 202.637 169.908 203.57 169.908C205.269 169.908 206.557 170.505 207.434 171.7C208.33 172.895 208.778 174.771 208.778 177.328V185H204.718V177.776C204.718 176.208 204.485 175.069 204.018 174.36C203.57 173.632 202.908 173.268 202.03 173.268C201.284 173.268 200.658 173.501 200.154 173.968C199.65 174.435 199.268 175.051 199.006 175.816C198.764 176.563 198.633 177.403 198.614 178.336V185H194.582ZM212.246 185V164.98H216.222V185H212.246ZM219.93 185V170.3H223.962V185H219.93ZM221.974 168.088C221.19 168.088 220.583 167.929 220.154 167.612C219.743 167.276 219.538 166.791 219.538 166.156C219.538 165.503 219.743 165.008 220.154 164.672C220.583 164.336 221.19 164.168 221.974 164.168C222.777 164.168 223.383 164.336 223.794 164.672C224.223 165.008 224.438 165.503 224.438 166.156C224.438 166.772 224.223 167.248 223.794 167.584C223.383 167.92 222.777 168.088 221.974 168.088ZM227.696 185V176.096V170.3H231L230.972 174.696H231.532C231.774 173.632 232.12 172.745 232.568 172.036C233.016 171.327 233.576 170.795 234.248 170.44C234.938 170.085 235.75 169.908 236.684 169.908C238.382 169.908 239.67 170.505 240.548 171.7C241.444 172.895 241.892 174.771 241.892 177.328V185H237.832V177.776C237.832 176.208 237.598 175.069 237.132 174.36C236.684 173.632 236.021 173.268 235.144 173.268C234.397 173.268 233.772 173.501 233.268 173.968C232.764 174.435 232.381 175.051 232.12 175.816C231.877 176.563 231.746 177.403 231.728 178.336V185H227.696ZM252.192 185.392C250.978 185.392 249.896 185.224 248.944 184.888C248.01 184.552 247.217 184.067 246.564 183.432C245.91 182.797 245.406 182.013 245.052 181.08C244.716 180.147 244.548 179.092 244.548 177.916C244.548 176.759 244.706 175.695 245.024 174.724C245.36 173.735 245.845 172.885 246.48 172.176C247.114 171.448 247.889 170.888 248.804 170.496C249.718 170.104 250.754 169.908 251.912 169.908C253.032 169.908 254.03 170.095 254.908 170.468C255.785 170.823 256.513 171.364 257.092 172.092C257.689 172.82 258.118 173.716 258.38 174.78C258.66 175.825 258.762 177.029 258.688 178.392L247.152 178.504V176.292L256.364 176.208L254.936 177.328C255.066 176.339 255.001 175.527 254.74 174.892C254.478 174.257 254.096 173.791 253.592 173.492C253.106 173.193 252.565 173.044 251.968 173.044C251.258 173.044 250.633 173.231 250.092 173.604C249.55 173.977 249.13 174.528 248.832 175.256C248.533 175.965 248.384 176.824 248.384 177.832C248.384 179.419 248.729 180.585 249.42 181.332C250.129 182.079 251.053 182.452 252.192 182.452C252.714 182.452 253.153 182.387 253.508 182.256C253.881 182.107 254.18 181.92 254.404 181.696C254.646 181.472 254.833 181.22 254.964 180.94C255.113 180.66 255.234 180.38 255.328 180.1L258.828 180.856C258.66 181.547 258.408 182.172 258.072 182.732C257.754 183.273 257.325 183.749 256.784 184.16C256.242 184.552 255.589 184.851 254.824 185.056C254.077 185.28 253.2 185.392 252.192 185.392ZM272.842 185L266.738 166.52H271.134L275.502 181.584H275.866L280.262 166.52H284.602L278.47 185H272.842ZM292.442 185.392C291.228 185.392 290.146 185.224 289.194 184.888C288.26 184.552 287.467 184.067 286.814 183.432C286.16 182.797 285.656 182.013 285.302 181.08C284.966 180.147 284.798 179.092 284.798 177.916C284.798 176.759 284.956 175.695 285.274 174.724C285.61 173.735 286.095 172.885 286.73 172.176C287.364 171.448 288.139 170.888 289.054 170.496C289.968 170.104 291.004 169.908 292.162 169.908C293.282 169.908 294.28 170.095 295.158 170.468C296.035 170.823 296.763 171.364 297.342 172.092C297.939 172.82 298.368 173.716 298.63 174.78C298.91 175.825 299.012 177.029 298.938 178.392L287.402 178.504V176.292L296.614 176.208L295.186 177.328C295.316 176.339 295.251 175.527 294.99 174.892C294.728 174.257 294.346 173.791 293.842 173.492C293.356 173.193 292.815 173.044 292.218 173.044C291.508 173.044 290.883 173.231 290.342 173.604C289.8 173.977 289.38 174.528 289.082 175.256C288.783 175.965 288.634 176.824 288.634 177.832C288.634 179.419 288.979 180.585 289.67 181.332C290.379 182.079 291.303 182.452 292.442 182.452C292.964 182.452 293.403 182.387 293.758 182.256C294.131 182.107 294.43 181.92 294.654 181.696C294.896 181.472 295.083 181.22 295.214 180.94C295.363 180.66 295.484 180.38 295.578 180.1L299.078 180.856C298.91 181.547 298.658 182.172 298.322 182.732C298.004 183.273 297.575 183.749 297.034 184.16C296.492 184.552 295.839 184.851 295.074 185.056C294.327 185.28 293.45 185.392 292.442 185.392ZM301.879 185V176.096V170.3H305.183L305.155 174.696H305.715C305.958 173.632 306.303 172.745 306.751 172.036C307.199 171.327 307.759 170.795 308.431 170.44C309.122 170.085 309.934 169.908 310.867 169.908C312.566 169.908 313.854 170.505 314.731 171.7C315.627 172.895 316.075 174.771 316.075 177.328V185H312.015V177.776C312.015 176.208 311.782 175.069 311.315 174.36C310.867 173.632 310.205 173.268 309.327 173.268C308.581 173.268 307.955 173.501 307.451 173.968C306.947 174.435 306.565 175.051 306.303 175.816C306.061 176.563 305.93 177.403 305.911 178.336V185H301.879ZM324.891 185.392C323.659 185.392 322.577 185.075 321.643 184.44C320.729 183.805 320.019 182.909 319.515 181.752C319.011 180.595 318.759 179.223 318.759 177.636C318.759 176.143 318.983 174.817 319.431 173.66C319.879 172.503 320.542 171.597 321.419 170.944C322.297 170.291 323.389 169.964 324.695 169.964C325.647 169.964 326.45 170.141 327.103 170.496C327.757 170.851 328.289 171.373 328.699 172.064C329.129 172.736 329.465 173.548 329.707 174.5H330.351C330.221 173.903 330.099 173.324 329.987 172.764C329.894 172.185 329.819 171.635 329.763 171.112C329.707 170.589 329.679 170.132 329.679 169.74V164.98H333.711V177.776V185H330.351V180.744H329.791C329.586 181.789 329.269 182.657 328.839 183.348C328.41 184.039 327.859 184.552 327.187 184.888C326.534 185.224 325.769 185.392 324.891 185.392ZM326.235 182.088C326.851 182.088 327.374 181.957 327.803 181.696C328.233 181.435 328.587 181.099 328.867 180.688C329.147 180.259 329.353 179.801 329.483 179.316C329.614 178.812 329.679 178.345 329.679 177.916V177.384C329.679 177.029 329.623 176.665 329.511 176.292C329.418 175.9 329.278 175.517 329.091 175.144C328.905 174.771 328.671 174.444 328.391 174.164C328.111 173.865 327.785 173.632 327.411 173.464C327.038 173.296 326.627 173.212 326.179 173.212C325.507 173.212 324.938 173.399 324.471 173.772C324.005 174.145 323.641 174.668 323.379 175.34C323.118 175.993 322.987 176.759 322.987 177.636C322.987 178.532 323.118 179.316 323.379 179.988C323.659 180.66 324.042 181.183 324.527 181.556C325.013 181.911 325.582 182.088 326.235 182.088ZM344.09 185.392C342.615 185.392 341.318 185.103 340.198 184.524C339.078 183.927 338.201 183.059 337.566 181.92C336.931 180.763 336.614 179.325 336.614 177.608C336.614 175.891 336.931 174.463 337.566 173.324C338.219 172.185 339.106 171.336 340.226 170.776C341.365 170.197 342.653 169.908 344.09 169.908C345.565 169.908 346.862 170.197 347.982 170.776C349.121 171.355 350.007 172.223 350.642 173.38C351.295 174.519 351.622 175.947 351.622 177.664C351.622 179.4 351.286 180.847 350.614 182.004C349.961 183.143 349.065 183.992 347.926 184.552C346.806 185.112 345.527 185.392 344.09 185.392ZM344.23 182.396C344.958 182.396 345.565 182.228 346.05 181.892C346.554 181.556 346.927 181.052 347.17 180.38C347.431 179.689 347.562 178.859 347.562 177.888C347.562 176.861 347.422 175.993 347.142 175.284C346.881 174.556 346.489 174.005 345.966 173.632C345.443 173.24 344.781 173.044 343.978 173.044C343.287 173.044 342.69 173.212 342.186 173.548C341.682 173.865 341.299 174.369 341.038 175.06C340.777 175.732 340.646 176.563 340.646 177.552C340.646 179.139 340.963 180.343 341.598 181.164C342.233 181.985 343.11 182.396 344.23 182.396ZM354.489 185V177.888V170.3H357.821L357.849 175.312H358.381C358.53 174.061 358.782 173.044 359.137 172.26C359.51 171.476 360.023 170.897 360.677 170.524C361.33 170.151 362.142 169.964 363.113 169.964C363.281 169.964 363.458 169.973 363.645 169.992C363.85 169.992 364.083 170.02 364.345 170.076L364.177 174.36C363.897 174.229 363.589 174.136 363.253 174.08C362.917 174.024 362.618 173.996 362.357 173.996C361.629 173.996 361.003 174.164 360.481 174.5C359.958 174.836 359.529 175.321 359.193 175.956C358.875 176.572 358.661 177.328 358.549 178.224V185H354.489ZM372.482 185.392C371.493 185.392 370.597 185.299 369.794 185.112C368.991 184.925 368.301 184.655 367.722 184.3C367.143 183.945 366.677 183.525 366.322 183.04C365.967 182.536 365.734 181.976 365.622 181.36L368.702 180.1C368.777 180.511 368.982 180.893 369.318 181.248C369.654 181.603 370.102 181.892 370.662 182.116C371.241 182.321 371.931 182.424 372.734 182.424C373.593 182.424 374.255 182.303 374.722 182.06C375.189 181.799 375.422 181.435 375.422 180.968C375.422 180.613 375.291 180.333 375.03 180.128C374.769 179.923 374.386 179.745 373.882 179.596C373.378 179.447 372.771 179.307 372.062 179.176C371.371 179.008 370.662 178.831 369.934 178.644C369.225 178.457 368.562 178.196 367.946 177.86C367.349 177.524 366.854 177.085 366.462 176.544C366.089 175.984 365.902 175.275 365.902 174.416C365.902 173.52 366.145 172.736 366.63 172.064C367.115 171.392 367.825 170.869 368.758 170.496C369.691 170.104 370.83 169.908 372.174 169.908C373.387 169.908 374.451 170.076 375.366 170.412C376.281 170.729 377.027 171.196 377.606 171.812C378.203 172.409 378.605 173.128 378.81 173.968L375.534 175.06C375.459 174.612 375.273 174.22 374.974 173.884C374.694 173.548 374.311 173.296 373.826 173.128C373.359 172.96 372.809 172.876 372.174 172.876C371.371 172.876 370.746 173.007 370.298 173.268C369.869 173.529 369.654 173.875 369.654 174.304C369.654 174.659 369.794 174.948 370.074 175.172C370.373 175.396 370.783 175.583 371.306 175.732C371.829 175.863 372.445 176.003 373.154 176.152C373.901 176.301 374.629 176.479 375.338 176.684C376.047 176.871 376.682 177.123 377.242 177.44C377.821 177.757 378.278 178.177 378.614 178.7C378.95 179.223 379.118 179.895 379.118 180.716C379.118 181.687 378.857 182.527 378.334 183.236C377.811 183.927 377.055 184.459 376.066 184.832C375.077 185.205 373.882 185.392 372.482 185.392Z" fill="black"/>
<path d="M87.7354 217V206.44H91.6074C92.194 206.44 92.7274 206.493 93.2074 206.6C93.698 206.707 94.114 206.872 94.4554 207.096C94.7967 207.309 95.058 207.592 95.2394 207.944C95.4314 208.296 95.5274 208.717 95.5274 209.208C95.5274 209.613 95.4474 209.971 95.2874 210.28C95.1274 210.589 94.8714 210.84 94.5194 211.032C94.178 211.224 93.7247 211.373 93.1594 211.48V211.656C94.1407 211.741 94.85 212.008 95.2874 212.456C95.7354 212.904 95.9594 213.491 95.9594 214.216C95.9594 214.813 95.8154 215.32 95.5274 215.736C95.25 216.141 94.818 216.456 94.2314 216.68C93.6554 216.893 92.9087 217 91.9914 217H87.7354ZM89.1434 215.752H92.1354C92.9354 215.752 93.5274 215.619 93.9114 215.352C94.306 215.075 94.5034 214.653 94.5034 214.088C94.5034 213.437 94.2314 212.952 93.6874 212.632C93.154 212.301 92.3434 212.136 91.2554 212.136H89.1434V215.752ZM89.1434 211.048H90.9674C92.0127 211.048 92.7914 210.909 93.3034 210.632C93.8154 210.344 94.0714 209.917 94.0714 209.352C94.0714 208.787 93.8474 208.365 93.3994 208.088C92.962 207.811 92.2954 207.672 91.3994 207.672H89.1434V211.048ZM100.795 217.208C99.8777 217.208 99.1843 216.888 98.715 216.248C98.2457 215.608 98.011 214.653 98.011 213.384V208.728H99.483V213.256C99.483 214.152 99.6217 214.819 99.899 215.256C100.176 215.693 100.614 215.912 101.211 215.912C101.542 215.912 101.835 215.832 102.091 215.672C102.358 215.512 102.592 215.283 102.795 214.984C102.998 214.685 103.163 214.333 103.291 213.928C103.419 213.512 103.504 213.064 103.547 212.584V208.728H105.003V213.544V217H103.707L103.835 214.344H103.595C103.456 215.005 103.259 215.549 103.003 215.976C102.758 216.392 102.448 216.701 102.075 216.904C101.702 217.107 101.275 217.208 100.795 217.208ZM110.396 219.784C109.959 219.784 109.527 219.731 109.1 219.624C108.684 219.528 108.3 219.379 107.948 219.176C107.596 218.973 107.308 218.712 107.084 218.392L107.82 217.336C108.066 217.699 108.412 217.976 108.86 218.168C109.308 218.36 109.799 218.456 110.332 218.456C110.93 218.456 111.426 218.323 111.82 218.056C112.226 217.8 112.53 217.4 112.732 216.856C112.935 216.301 113.042 215.613 113.052 214.792L113.228 213.128H112.924C112.807 213.907 112.62 214.531 112.364 215C112.119 215.459 111.81 215.789 111.436 215.992C111.074 216.195 110.652 216.296 110.172 216.296C109.575 216.296 109.068 216.147 108.652 215.848C108.247 215.539 107.938 215.091 107.724 214.504C107.511 213.907 107.404 213.181 107.404 212.328V208.728H108.86V212.008C108.86 213.043 109.004 213.805 109.292 214.296C109.591 214.776 110.034 215.016 110.62 215.016C110.94 215.016 111.228 214.936 111.484 214.776C111.74 214.616 111.959 214.381 112.14 214.072C112.332 213.763 112.482 213.373 112.588 212.904C112.706 212.424 112.78 211.869 112.812 211.24V208.728H114.268V214.872C114.268 215.523 114.22 216.109 114.124 216.632C114.028 217.155 113.874 217.608 113.66 217.992C113.458 218.387 113.202 218.717 112.892 218.984C112.583 219.251 112.22 219.448 111.804 219.576C111.388 219.715 110.919 219.784 110.396 219.784ZM120.043 217L123.755 206.44H125.899L129.611 217H128.027L124.923 207.672H124.731L121.627 217H120.043ZM121.803 214.632V213.512H128.027V214.632H121.803ZM131.311 217V211.864V208.728H132.623L132.479 211.352H132.751C132.9 210.701 133.098 210.168 133.343 209.752C133.599 209.336 133.919 209.027 134.303 208.824C134.687 208.621 135.135 208.52 135.647 208.52C136.564 208.52 137.258 208.851 137.727 209.512C138.207 210.163 138.447 211.139 138.447 212.44V217H136.975V212.568C136.975 211.629 136.826 210.936 136.527 210.488C136.239 210.04 135.812 209.816 135.247 209.816C134.735 209.816 134.298 209.976 133.935 210.296C133.583 210.616 133.306 211.037 133.103 211.56C132.9 212.083 132.788 212.648 132.767 213.256V217H131.311ZM143.785 217.208C143.081 217.208 142.479 217.021 141.977 216.648C141.476 216.275 141.092 215.763 140.825 215.112C140.569 214.461 140.441 213.715 140.441 212.872C140.441 212.029 140.569 211.283 140.825 210.632C141.081 209.981 141.455 209.469 141.945 209.096C142.436 208.723 143.039 208.536 143.753 208.536C144.34 208.536 144.82 208.659 145.193 208.904C145.567 209.149 145.865 209.469 146.089 209.864C146.324 210.248 146.495 210.669 146.601 211.128H146.889C146.836 210.819 146.788 210.499 146.745 210.168C146.703 209.827 146.665 209.496 146.633 209.176C146.601 208.845 146.585 208.552 146.585 208.296V205.8H148.057V212.92V217H146.745L146.825 214.76H146.569C146.441 215.24 146.26 215.667 146.025 216.04C145.791 216.403 145.492 216.691 145.129 216.904C144.767 217.107 144.319 217.208 143.785 217.208ZM144.121 215.928C144.505 215.928 144.852 215.837 145.161 215.656C145.471 215.475 145.732 215.24 145.945 214.952C146.159 214.653 146.319 214.333 146.425 213.992C146.543 213.651 146.601 213.32 146.601 213V212.808C146.601 212.584 146.569 212.344 146.505 212.088C146.441 211.821 146.345 211.555 146.217 211.288C146.1 211.021 145.94 210.776 145.737 210.552C145.545 210.317 145.316 210.136 145.049 210.008C144.783 209.869 144.484 209.8 144.153 209.8C143.673 209.8 143.268 209.939 142.937 210.216C142.617 210.483 142.372 210.851 142.201 211.32C142.041 211.789 141.961 212.317 141.961 212.904C141.961 213.512 142.047 214.045 142.217 214.504C142.388 214.952 142.633 215.304 142.953 215.56C143.284 215.805 143.673 215.928 144.121 215.928ZM158.447 217.208C157.743 217.208 157.124 217.133 156.591 216.984C156.068 216.835 155.626 216.616 155.263 216.328C154.911 216.029 154.65 215.667 154.479 215.24C154.308 214.813 154.234 214.317 154.255 213.752L155.583 213.464C155.54 214.019 155.631 214.483 155.855 214.856C156.079 215.229 156.42 215.512 156.879 215.704C157.338 215.885 157.876 215.976 158.495 215.976C159.092 215.976 159.599 215.901 160.015 215.752C160.431 215.603 160.74 215.395 160.943 215.128C161.156 214.861 161.263 214.557 161.263 214.216C161.263 213.832 161.14 213.528 160.895 213.304C160.65 213.08 160.319 212.909 159.903 212.792C159.498 212.664 159.044 212.547 158.543 212.44C158.052 212.333 157.562 212.211 157.071 212.072C156.58 211.933 156.138 211.757 155.743 211.544C155.359 211.32 155.044 211.032 154.799 210.68C154.564 210.317 154.447 209.859 154.447 209.304C154.447 208.675 154.602 208.131 154.911 207.672C155.231 207.213 155.679 206.861 156.255 206.616C156.831 206.36 157.508 206.232 158.287 206.232C159.055 206.232 159.738 206.355 160.335 206.6C160.943 206.845 161.423 207.208 161.775 207.688C162.127 208.157 162.314 208.739 162.335 209.432L160.959 209.768C160.959 209.384 160.89 209.048 160.751 208.76C160.623 208.461 160.442 208.221 160.207 208.04C159.972 207.848 159.69 207.704 159.359 207.608C159.028 207.501 158.666 207.448 158.271 207.448C157.791 207.448 157.37 207.523 157.007 207.672C156.644 207.821 156.362 208.024 156.159 208.28C155.956 208.536 155.855 208.84 155.855 209.192C155.855 209.608 155.999 209.939 156.287 210.184C156.586 210.419 156.97 210.605 157.439 210.744C157.908 210.883 158.41 211.011 158.943 211.128C159.402 211.224 159.85 211.341 160.287 211.48C160.735 211.608 161.14 211.784 161.503 212.008C161.866 212.221 162.154 212.504 162.367 212.856C162.58 213.208 162.687 213.656 162.687 214.2C162.687 214.808 162.527 215.336 162.207 215.784C161.898 216.232 161.428 216.584 160.799 216.84C160.17 217.085 159.386 217.208 158.447 217.208ZM168.347 217.208C167.697 217.208 167.121 217.112 166.619 216.92C166.129 216.717 165.713 216.429 165.371 216.056C165.03 215.683 164.774 215.24 164.603 214.728C164.433 214.216 164.347 213.64 164.347 213C164.347 212.349 164.433 211.752 164.603 211.208C164.774 210.664 165.025 210.189 165.355 209.784C165.686 209.379 166.091 209.069 166.571 208.856C167.051 208.632 167.601 208.52 168.219 208.52C168.763 208.52 169.259 208.611 169.707 208.792C170.155 208.973 170.534 209.256 170.843 209.64C171.163 210.013 171.403 210.488 171.563 211.064C171.723 211.629 171.787 212.296 171.755 213.064L165.259 213.112V212.12L170.875 212.072L170.379 212.744C170.433 212.072 170.369 211.517 170.187 211.08C170.006 210.643 169.745 210.312 169.403 210.088C169.073 209.864 168.678 209.752 168.219 209.752C167.729 209.752 167.297 209.88 166.923 210.136C166.55 210.392 166.262 210.76 166.059 211.24C165.867 211.72 165.771 212.301 165.771 212.984C165.771 213.965 165.99 214.717 166.427 215.24C166.865 215.752 167.515 216.008 168.379 216.008C168.71 216.008 168.998 215.971 169.243 215.896C169.499 215.811 169.713 215.699 169.883 215.56C170.065 215.411 170.209 215.24 170.315 215.048C170.433 214.856 170.523 214.648 170.587 214.424L171.867 214.728C171.771 215.112 171.622 215.459 171.419 215.768C171.227 216.067 170.982 216.323 170.683 216.536C170.395 216.749 170.059 216.915 169.675 217.032C169.291 217.149 168.849 217.208 168.347 217.208ZM173.827 217V205.8H175.283V217H173.827ZM177.795 217V205.8H179.251V217H177.795ZM187.731 217L185.091 206.44H186.675L188.787 215.672H188.931L191.107 206.44H193.091L195.235 215.672H195.379L197.539 206.44H199.075L196.371 217H194.259L192.163 207.784H192.019L189.875 217H187.731ZM200.905 217V208.728H202.361V217H200.905ZM201.641 207.288C201.3 207.288 201.044 207.219 200.873 207.08C200.702 206.941 200.617 206.733 200.617 206.456C200.617 206.179 200.702 205.971 200.873 205.832C201.044 205.693 201.294 205.624 201.625 205.624C201.966 205.624 202.222 205.693 202.393 205.832C202.564 205.971 202.649 206.179 202.649 206.456C202.649 206.723 202.564 206.931 202.393 207.08C202.222 207.219 201.972 207.288 201.641 207.288ZM207.465 217.16C206.697 217.16 206.126 216.952 205.753 216.536C205.38 216.12 205.193 215.485 205.193 214.632V209.944H203.945L203.961 208.728H204.745C205.012 208.728 205.204 208.68 205.321 208.584C205.449 208.488 205.524 208.328 205.545 208.104L205.705 206.856H206.601V208.728H208.985V209.96H206.601V214.6C206.601 215.027 206.697 215.336 206.889 215.528C207.092 215.709 207.38 215.8 207.753 215.8C207.956 215.8 208.164 215.773 208.377 215.72C208.601 215.667 208.82 215.56 209.033 215.4V216.856C208.724 216.973 208.436 217.053 208.169 217.096C207.913 217.139 207.678 217.16 207.465 217.16ZM210.827 217V211.976V205.8H212.331V208.376C212.331 208.611 212.32 208.851 212.299 209.096C212.288 209.331 212.267 209.571 212.235 209.816C212.213 210.061 212.187 210.312 212.155 210.568C212.123 210.813 212.085 211.064 212.043 211.32H212.315C212.475 210.691 212.677 210.173 212.923 209.768C213.168 209.352 213.472 209.043 213.835 208.84C214.208 208.627 214.651 208.52 215.163 208.52C216.101 208.52 216.8 208.851 217.259 209.512C217.728 210.163 217.963 211.139 217.963 212.44V217H216.491V212.584C216.491 211.624 216.341 210.925 216.043 210.488C215.755 210.04 215.317 209.816 214.731 209.816C214.24 209.816 213.824 209.96 213.483 210.248C213.141 210.536 212.869 210.925 212.667 211.416C212.475 211.907 212.347 212.467 212.283 213.096V217H210.827ZM228.981 217.208C228.223 217.208 227.541 217.091 226.933 216.856C226.335 216.621 225.829 216.275 225.413 215.816C224.997 215.357 224.677 214.797 224.453 214.136C224.239 213.464 224.133 212.701 224.133 211.848C224.133 210.984 224.245 210.211 224.469 209.528C224.693 208.835 225.013 208.243 225.429 207.752C225.845 207.261 226.346 206.888 226.933 206.632C227.519 206.365 228.175 206.232 228.901 206.232C229.455 206.232 229.967 206.312 230.437 206.472C230.906 206.621 231.311 206.845 231.653 207.144C232.005 207.432 232.277 207.784 232.469 208.2C232.661 208.616 232.762 209.08 232.773 209.592L231.381 209.944C231.391 209.4 231.279 208.952 231.045 208.6C230.81 208.237 230.501 207.965 230.117 207.784C229.733 207.603 229.317 207.512 228.869 207.512C228.453 207.512 228.047 207.597 227.653 207.768C227.269 207.928 226.927 208.184 226.629 208.536C226.33 208.877 226.09 209.32 225.909 209.864C225.738 210.397 225.653 211.043 225.653 211.8C225.653 212.771 225.791 213.555 226.069 214.152C226.357 214.749 226.757 215.192 227.269 215.48C227.781 215.757 228.373 215.896 229.045 215.896C229.695 215.896 230.218 215.779 230.613 215.544C231.007 215.299 231.301 214.963 231.493 214.536C231.685 214.099 231.797 213.597 231.829 213.032L233.141 213.272C233.13 213.805 233.045 214.312 232.885 214.792C232.725 215.272 232.479 215.693 232.149 216.056C231.818 216.419 231.391 216.701 230.869 216.904C230.346 217.107 229.717 217.208 228.981 217.208ZM238.613 217.208C237.824 217.208 237.125 217.037 236.517 216.696C235.92 216.344 235.45 215.843 235.109 215.192C234.778 214.541 234.613 213.752 234.613 212.824C234.613 211.864 234.789 211.069 235.141 210.44C235.504 209.8 235.984 209.32 236.581 209C237.178 208.68 237.845 208.52 238.581 208.52C239.349 208.52 240.032 208.691 240.629 209.032C241.237 209.363 241.717 209.853 242.069 210.504C242.421 211.144 242.597 211.939 242.597 212.888C242.597 213.837 242.421 214.632 242.069 215.272C241.728 215.912 241.253 216.397 240.645 216.728C240.048 217.048 239.37 217.208 238.613 217.208ZM238.677 216.008C239.189 216.008 239.626 215.885 239.989 215.64C240.362 215.384 240.645 215.027 240.837 214.568C241.04 214.109 241.141 213.565 241.141 212.936C241.141 212.285 241.034 211.725 240.821 211.256C240.618 210.776 240.325 210.408 239.941 210.152C239.557 209.885 239.093 209.752 238.549 209.752C238.058 209.752 237.626 209.869 237.253 210.104C236.88 210.339 236.592 210.685 236.389 211.144C236.186 211.592 236.085 212.141 236.085 212.792C236.085 213.795 236.314 214.584 236.773 215.16C237.242 215.725 237.877 216.008 238.677 216.008ZM244.67 217V211.864V208.728H245.982L245.838 211.352H246.11C246.26 210.701 246.457 210.168 246.702 209.752C246.958 209.336 247.278 209.027 247.662 208.824C248.046 208.621 248.494 208.52 249.006 208.52C249.924 208.52 250.617 208.851 251.086 209.512C251.566 210.163 251.806 211.139 251.806 212.44V217H250.334V212.568C250.334 211.629 250.185 210.936 249.886 210.488C249.598 210.04 249.172 209.816 248.606 209.816C248.094 209.816 247.657 209.976 247.294 210.296C246.942 210.616 246.665 211.037 246.462 211.56C246.26 212.083 246.148 212.648 246.126 213.256V217H244.67ZM254.842 217V211.16H253.37V209.992L255.434 210.12V209.848C255.167 209.741 254.943 209.597 254.762 209.416C254.591 209.224 254.458 209.005 254.362 208.76C254.277 208.515 254.234 208.253 254.234 207.976C254.234 207.528 254.33 207.139 254.522 206.808C254.725 206.477 255.007 206.216 255.37 206.024C255.743 205.832 256.186 205.736 256.698 205.736C257.103 205.736 257.466 205.795 257.786 205.912C258.117 206.019 258.389 206.163 258.602 206.344L258.426 207.704C258.223 207.512 257.978 207.363 257.69 207.256C257.402 207.139 257.114 207.08 256.826 207.08C256.474 207.08 256.186 207.192 255.962 207.416C255.738 207.64 255.626 207.987 255.626 208.456C255.626 208.723 255.663 208.952 255.738 209.144C255.813 209.336 255.909 209.501 256.026 209.64C256.154 209.768 256.282 209.875 256.41 209.96H258.458L258.442 211.16H256.282V217H254.842ZM260.171 217V208.728H261.627V217H260.171ZM260.907 207.288C260.565 207.288 260.309 207.219 260.139 207.08C259.968 206.941 259.883 206.733 259.883 206.456C259.883 206.179 259.968 205.971 260.139 205.832C260.309 205.693 260.56 205.624 260.891 205.624C261.232 205.624 261.488 205.693 261.659 205.832C261.829 205.971 261.915 206.179 261.915 206.456C261.915 206.723 261.829 206.931 261.659 207.08C261.488 207.219 261.237 207.288 260.907 207.288ZM267.067 217.208C266.363 217.208 265.76 217.021 265.259 216.648C264.757 216.275 264.373 215.763 264.107 215.112C263.851 214.461 263.723 213.715 263.723 212.872C263.723 212.029 263.851 211.283 264.107 210.632C264.363 209.981 264.736 209.469 265.227 209.096C265.717 208.723 266.32 208.536 267.035 208.536C267.621 208.536 268.101 208.659 268.475 208.904C268.848 209.149 269.147 209.469 269.371 209.864C269.605 210.248 269.776 210.669 269.883 211.128H270.171C270.117 210.819 270.069 210.499 270.027 210.168C269.984 209.827 269.947 209.496 269.915 209.176C269.883 208.845 269.867 208.552 269.867 208.296V205.8H271.339V212.92V217H270.027L270.107 214.76H269.851C269.723 215.24 269.541 215.667 269.307 216.04C269.072 216.403 268.773 216.691 268.411 216.904C268.048 217.107 267.6 217.208 267.067 217.208ZM267.403 215.928C267.787 215.928 268.133 215.837 268.443 215.656C268.752 215.475 269.013 215.24 269.227 214.952C269.44 214.653 269.6 214.333 269.707 213.992C269.824 213.651 269.883 213.32 269.883 213V212.808C269.883 212.584 269.851 212.344 269.787 212.088C269.723 211.821 269.627 211.555 269.499 211.288C269.381 211.021 269.221 210.776 269.019 210.552C268.827 210.317 268.597 210.136 268.331 210.008C268.064 209.869 267.765 209.8 267.435 209.8C266.955 209.8 266.549 209.939 266.219 210.216C265.899 210.483 265.653 210.851 265.483 211.32C265.323 211.789 265.243 212.317 265.243 212.904C265.243 213.512 265.328 214.045 265.499 214.504C265.669 214.952 265.915 215.304 266.235 215.56C266.565 215.805 266.955 215.928 267.403 215.928ZM277.425 217.208C276.775 217.208 276.199 217.112 275.697 216.92C275.207 216.717 274.791 216.429 274.449 216.056C274.108 215.683 273.852 215.24 273.681 214.728C273.511 214.216 273.425 213.64 273.425 213C273.425 212.349 273.511 211.752 273.681 211.208C273.852 210.664 274.103 210.189 274.433 209.784C274.764 209.379 275.169 209.069 275.649 208.856C276.129 208.632 276.679 208.52 277.297 208.52C277.841 208.52 278.337 208.611 278.785 208.792C279.233 208.973 279.612 209.256 279.921 209.64C280.241 210.013 280.481 210.488 280.641 211.064C280.801 211.629 280.865 212.296 280.833 213.064L274.337 213.112V212.12L279.953 212.072L279.457 212.744C279.511 212.072 279.447 211.517 279.265 211.08C279.084 210.643 278.823 210.312 278.481 210.088C278.151 209.864 277.756 209.752 277.297 209.752C276.807 209.752 276.375 209.88 276.001 210.136C275.628 210.392 275.34 210.76 275.137 211.24C274.945 211.72 274.849 212.301 274.849 212.984C274.849 213.965 275.068 214.717 275.505 215.24C275.943 215.752 276.593 216.008 277.457 216.008C277.788 216.008 278.076 215.971 278.321 215.896C278.577 215.811 278.791 215.699 278.961 215.56C279.143 215.411 279.287 215.24 279.393 215.048C279.511 214.856 279.601 214.648 279.665 214.424L280.945 214.728C280.849 215.112 280.7 215.459 280.497 215.768C280.305 216.067 280.06 216.323 279.761 216.536C279.473 216.749 279.137 216.915 278.753 217.032C278.369 217.149 277.927 217.208 277.425 217.208ZM282.905 217V211.864V208.728H284.217L284.073 211.352H284.345C284.494 210.701 284.691 210.168 284.937 209.752C285.193 209.336 285.513 209.027 285.897 208.824C286.281 208.621 286.729 208.52 287.241 208.52C288.158 208.52 288.851 208.851 289.321 209.512C289.801 210.163 290.041 211.139 290.041 212.44V217H288.569V212.568C288.569 211.629 288.419 210.936 288.121 210.488C287.833 210.04 287.406 209.816 286.841 209.816C286.329 209.816 285.891 209.976 285.529 210.296C285.177 210.616 284.899 211.037 284.697 211.56C284.494 212.083 284.382 212.648 284.361 213.256V217H282.905ZM295.988 217.208C295.263 217.208 294.644 217.091 294.132 216.856C293.631 216.621 293.22 216.307 292.9 215.912C292.591 215.517 292.361 215.064 292.212 214.552C292.073 214.04 292.004 213.507 292.004 212.952C292.004 212.344 292.084 211.773 292.244 211.24C292.404 210.707 292.644 210.237 292.964 209.832C293.295 209.416 293.7 209.096 294.18 208.872C294.671 208.637 295.241 208.52 295.892 208.52C296.521 208.52 297.076 208.632 297.556 208.856C298.036 209.069 298.425 209.373 298.724 209.768C299.033 210.163 299.231 210.632 299.316 211.176L297.924 211.56C297.903 211.261 297.812 210.973 297.652 210.696C297.503 210.419 297.279 210.195 296.98 210.024C296.681 209.843 296.313 209.752 295.876 209.752C295.46 209.752 295.103 209.832 294.804 209.992C294.516 210.152 294.271 210.376 294.068 210.664C293.876 210.952 293.727 211.288 293.62 211.672C293.524 212.056 293.476 212.472 293.476 212.92C293.476 213.539 293.561 214.077 293.732 214.536C293.913 214.995 294.191 215.352 294.564 215.608C294.937 215.864 295.417 215.992 296.004 215.992C296.441 215.992 296.815 215.917 297.124 215.768C297.433 215.608 297.679 215.389 297.86 215.112C298.041 214.824 298.159 214.488 298.212 214.104L299.556 214.408C299.481 214.867 299.343 215.272 299.14 215.624C298.937 215.976 298.681 216.269 298.372 216.504C298.063 216.728 297.705 216.899 297.3 217.016C296.905 217.144 296.468 217.208 295.988 217.208ZM304.769 217.208C304.118 217.208 303.542 217.112 303.041 216.92C302.55 216.717 302.134 216.429 301.793 216.056C301.452 215.683 301.196 215.24 301.025 214.728C300.854 214.216 300.769 213.64 300.769 213C300.769 212.349 300.854 211.752 301.025 211.208C301.196 210.664 301.446 210.189 301.777 209.784C302.108 209.379 302.513 209.069 302.993 208.856C303.473 208.632 304.022 208.52 304.641 208.52C305.185 208.52 305.681 208.611 306.129 208.792C306.577 208.973 306.956 209.256 307.265 209.64C307.585 210.013 307.825 210.488 307.985 211.064C308.145 211.629 308.209 212.296 308.177 213.064L301.681 213.112V212.12L307.297 212.072L306.801 212.744C306.854 212.072 306.79 211.517 306.609 211.08C306.428 210.643 306.166 210.312 305.825 210.088C305.494 209.864 305.1 209.752 304.641 209.752C304.15 209.752 303.718 209.88 303.345 210.136C302.972 210.392 302.684 210.76 302.481 211.24C302.289 211.72 302.193 212.301 302.193 212.984C302.193 213.965 302.412 214.717 302.849 215.24C303.286 215.752 303.937 216.008 304.801 216.008C305.132 216.008 305.42 215.971 305.665 215.896C305.921 215.811 306.134 215.699 306.305 215.56C306.486 215.411 306.63 215.24 306.737 215.048C306.854 214.856 306.945 214.648 307.009 214.424L308.289 214.728C308.193 215.112 308.044 215.459 307.841 215.768C307.649 216.067 307.404 216.323 307.105 216.536C306.817 216.749 306.481 216.915 306.097 217.032C305.713 217.149 305.27 217.208 304.769 217.208ZM310.439 217.192C310.098 217.192 309.842 217.117 309.671 216.968C309.501 216.819 309.415 216.579 309.415 216.248C309.415 215.928 309.501 215.693 309.671 215.544C309.842 215.395 310.098 215.32 310.439 215.32C310.791 215.32 311.053 215.395 311.223 215.544C311.405 215.693 311.495 215.933 311.495 216.264C311.495 216.883 311.143 217.192 310.439 217.192ZM317.282 217V206.44H319.554L323.058 215.464H323.138L326.626 206.44H328.818V217H327.426L327.522 207.928H327.394L323.762 217H322.322L318.722 207.912H318.594L318.69 217H317.282ZM335.004 217.208C334.214 217.208 333.516 217.037 332.908 216.696C332.31 216.344 331.841 215.843 331.5 215.192C331.169 214.541 331.004 213.752 331.004 212.824C331.004 211.864 331.18 211.069 331.532 210.44C331.894 209.8 332.374 209.32 332.972 209C333.569 208.68 334.236 208.52 334.972 208.52C335.74 208.52 336.422 208.691 337.02 209.032C337.628 209.363 338.108 209.853 338.46 210.504C338.812 211.144 338.988 211.939 338.988 212.888C338.988 213.837 338.812 214.632 338.46 215.272C338.118 215.912 337.644 216.397 337.036 216.728C336.438 217.048 335.761 217.208 335.004 217.208ZM335.068 216.008C335.58 216.008 336.017 215.885 336.38 215.64C336.753 215.384 337.036 215.027 337.228 214.568C337.43 214.109 337.532 213.565 337.532 212.936C337.532 212.285 337.425 211.725 337.212 211.256C337.009 210.776 336.716 210.408 336.332 210.152C335.948 209.885 335.484 209.752 334.94 209.752C334.449 209.752 334.017 209.869 333.644 210.104C333.27 210.339 332.982 210.685 332.78 211.144C332.577 211.592 332.476 212.141 332.476 212.792C332.476 213.795 332.705 214.584 333.164 215.16C333.633 215.725 334.268 216.008 335.068 216.008ZM341.061 217V211.864V208.728H342.373L342.229 211.352H342.501C342.65 210.701 342.848 210.168 343.093 209.752C343.349 209.336 343.669 209.027 344.053 208.824C344.437 208.621 344.885 208.52 345.397 208.52C346.314 208.52 347.008 208.851 347.477 209.512C347.957 210.163 348.197 211.139 348.197 212.44V217H346.725V212.568C346.725 211.629 346.576 210.936 346.277 210.488C345.989 210.04 345.562 209.816 344.997 209.816C344.485 209.816 344.048 209.976 343.685 210.296C343.333 210.616 343.056 211.037 342.853 211.56C342.65 212.083 342.538 212.648 342.517 213.256V217H341.061ZM354.144 217.208C353.493 217.208 352.917 217.112 352.416 216.92C351.925 216.717 351.509 216.429 351.168 216.056C350.827 215.683 350.571 215.24 350.4 214.728C350.229 214.216 350.144 213.64 350.144 213C350.144 212.349 350.229 211.752 350.4 211.208C350.571 210.664 350.821 210.189 351.152 209.784C351.483 209.379 351.888 209.069 352.368 208.856C352.848 208.632 353.397 208.52 354.016 208.52C354.56 208.52 355.056 208.611 355.504 208.792C355.952 208.973 356.331 209.256 356.64 209.64C356.96 210.013 357.2 210.488 357.36 211.064C357.52 211.629 357.584 212.296 357.552 213.064L351.056 213.112V212.12L356.672 212.072L356.176 212.744C356.229 212.072 356.165 211.517 355.984 211.08C355.803 210.643 355.541 210.312 355.2 210.088C354.869 209.864 354.475 209.752 354.016 209.752C353.525 209.752 353.093 209.88 352.72 210.136C352.347 210.392 352.059 210.76 351.856 211.24C351.664 211.72 351.568 212.301 351.568 212.984C351.568 213.965 351.787 214.717 352.224 215.24C352.661 215.752 353.312 216.008 354.176 216.008C354.507 216.008 354.795 215.971 355.04 215.896C355.296 215.811 355.509 215.699 355.68 215.56C355.861 215.411 356.005 215.24 356.112 215.048C356.229 214.856 356.32 214.648 356.384 214.424L357.664 214.728C357.568 215.112 357.419 215.459 357.216 215.768C357.024 216.067 356.779 216.323 356.48 216.536C356.192 216.749 355.856 216.915 355.472 217.032C355.088 217.149 354.645 217.208 354.144 217.208ZM362.521 219.784C362.084 219.784 361.652 219.731 361.225 219.624C360.809 219.528 360.425 219.379 360.073 219.176C359.721 218.973 359.433 218.712 359.209 218.392L359.945 217.336C360.191 217.699 360.537 217.976 360.985 218.168C361.433 218.36 361.924 218.456 362.457 218.456C363.055 218.456 363.551 218.323 363.945 218.056C364.351 217.8 364.655 217.4 364.857 216.856C365.06 216.301 365.167 215.613 365.177 214.792L365.353 213.128H365.049C364.932 213.907 364.745 214.531 364.489 215C364.244 215.459 363.935 215.789 363.561 215.992C363.199 216.195 362.777 216.296 362.297 216.296C361.7 216.296 361.193 216.147 360.777 215.848C360.372 215.539 360.063 215.091 359.849 214.504C359.636 213.907 359.529 213.181 359.529 212.328V208.728H360.985V212.008C360.985 213.043 361.129 213.805 361.417 214.296C361.716 214.776 362.159 215.016 362.745 215.016C363.065 215.016 363.353 214.936 363.609 214.776C363.865 214.616 364.084 214.381 364.265 214.072C364.457 213.763 364.607 213.373 364.713 212.904C364.831 212.424 364.905 211.869 364.937 211.24V208.728H366.393V214.872C366.393 215.523 366.345 216.109 366.249 216.632C366.153 217.155 365.999 217.608 365.785 217.992C365.583 218.387 365.327 218.717 365.017 218.984C364.708 219.251 364.345 219.448 363.929 219.576C363.513 219.715 363.044 219.784 362.521 219.784ZM117.627 245.208C116.923 245.208 116.304 245.133 115.771 244.984C115.248 244.835 114.805 244.616 114.443 244.328C114.091 244.029 113.829 243.667 113.659 243.24C113.488 242.813 113.413 242.317 113.435 241.752L114.763 241.464C114.72 242.019 114.811 242.483 115.035 242.856C115.259 243.229 115.6 243.512 116.059 243.704C116.517 243.885 117.056 243.976 117.675 243.976C118.272 243.976 118.779 243.901 119.195 243.752C119.611 243.603 119.92 243.395 120.123 243.128C120.336 242.861 120.443 242.557 120.443 242.216C120.443 241.832 120.32 241.528 120.075 241.304C119.829 241.08 119.499 240.909 119.083 240.792C118.677 240.664 118.224 240.547 117.723 240.44C117.232 240.333 116.741 240.211 116.251 240.072C115.76 239.933 115.317 239.757 114.923 239.544C114.539 239.32 114.224 239.032 113.979 238.68C113.744 238.317 113.627 237.859 113.627 237.304C113.627 236.675 113.781 236.131 114.091 235.672C114.411 235.213 114.859 234.861 115.435 234.616C116.011 234.36 116.688 234.232 117.467 234.232C118.235 234.232 118.917 234.355 119.515 234.6C120.123 234.845 120.603 235.208 120.955 235.688C121.307 236.157 121.493 236.739 121.515 237.432L120.139 237.768C120.139 237.384 120.069 237.048 119.931 236.76C119.803 236.461 119.621 236.221 119.387 236.04C119.152 235.848 118.869 235.704 118.539 235.608C118.208 235.501 117.845 235.448 117.451 235.448C116.971 235.448 116.549 235.523 116.187 235.672C115.824 235.821 115.541 236.024 115.339 236.28C115.136 236.536 115.035 236.84 115.035 237.192C115.035 237.608 115.179 237.939 115.467 238.184C115.765 238.419 116.149 238.605 116.619 238.744C117.088 238.883 117.589 239.011 118.123 239.128C118.581 239.224 119.029 239.341 119.467 239.48C119.915 239.608 120.32 239.784 120.683 240.008C121.045 240.221 121.333 240.504 121.547 240.856C121.76 241.208 121.867 241.656 121.867 242.2C121.867 242.808 121.707 243.336 121.387 243.784C121.077 244.232 120.608 244.584 119.979 244.84C119.349 245.085 118.565 245.208 117.627 245.208ZM126.551 245.16C125.783 245.16 125.212 244.952 124.839 244.536C124.466 244.12 124.279 243.485 124.279 242.632V237.944H123.031L123.047 236.728H123.831C124.098 236.728 124.29 236.68 124.407 236.584C124.535 236.488 124.61 236.328 124.631 236.104L124.791 234.856H125.687V236.728H128.071V237.96H125.687V242.6C125.687 243.027 125.783 243.336 125.975 243.528C126.178 243.709 126.466 243.8 126.839 243.8C127.042 243.8 127.25 243.773 127.463 243.72C127.687 243.667 127.906 243.56 128.119 243.4V244.856C127.81 244.973 127.522 245.053 127.255 245.096C126.999 245.139 126.764 245.16 126.551 245.16ZM131.816 245.208C131.368 245.208 130.963 245.123 130.6 244.952C130.238 244.771 129.95 244.509 129.736 244.168C129.523 243.816 129.416 243.373 129.416 242.84C129.416 242.445 129.486 242.099 129.624 241.8C129.774 241.501 129.998 241.245 130.296 241.032C130.606 240.819 131 240.643 131.48 240.504C131.96 240.365 132.547 240.248 133.24 240.152C133.635 240.099 133.955 240.045 134.2 239.992C134.456 239.939 134.643 239.853 134.76 239.736C134.878 239.608 134.936 239.421 134.936 239.176C134.936 238.771 134.798 238.429 134.52 238.152C134.243 237.875 133.806 237.736 133.208 237.736C132.899 237.736 132.584 237.789 132.264 237.896C131.944 238.003 131.662 238.184 131.416 238.44C131.182 238.685 131.032 239.032 130.968 239.48L129.624 239.032C129.71 238.648 129.848 238.301 130.04 237.992C130.243 237.683 130.499 237.421 130.808 237.208C131.118 236.984 131.475 236.813 131.88 236.696C132.296 236.579 132.755 236.52 133.256 236.52C133.95 236.52 134.526 236.637 134.984 236.872C135.454 237.107 135.8 237.469 136.024 237.96C136.259 238.44 136.376 239.059 136.376 239.816V241.656C136.376 241.987 136.382 242.349 136.392 242.744C136.414 243.128 136.44 243.517 136.472 243.912C136.504 244.296 136.536 244.659 136.568 245H135.224C135.192 244.659 135.16 244.317 135.128 243.976C135.107 243.635 135.091 243.293 135.08 242.952H134.872C134.712 243.347 134.499 243.715 134.232 244.056C133.966 244.397 133.63 244.675 133.224 244.888C132.83 245.101 132.36 245.208 131.816 245.208ZM132.248 244.024C132.483 244.024 132.718 243.987 132.952 243.912C133.198 243.837 133.438 243.715 133.672 243.544C133.918 243.373 134.147 243.155 134.36 242.888C134.584 242.621 134.782 242.301 134.952 241.928V240.328L135.368 240.408C135.198 240.579 134.968 240.707 134.68 240.792C134.403 240.877 134.094 240.947 133.752 241C133.411 241.053 133.07 241.112 132.728 241.176C132.387 241.229 132.072 241.315 131.784 241.432C131.507 241.539 131.283 241.693 131.112 241.896C130.942 242.099 130.856 242.376 130.856 242.728C130.856 243.155 130.984 243.48 131.24 243.704C131.496 243.917 131.832 244.024 132.248 244.024ZM141.654 247.784C141.217 247.784 140.785 247.731 140.358 247.624C139.942 247.528 139.558 247.379 139.206 247.176C138.854 246.973 138.566 246.712 138.342 246.392L139.078 245.336C139.323 245.699 139.67 245.976 140.118 246.168C140.566 246.36 141.057 246.456 141.59 246.456C142.187 246.456 142.683 246.323 143.078 246.056C143.483 245.8 143.787 245.4 143.99 244.856C144.193 244.301 144.299 243.613 144.31 242.792L144.486 241.128H144.182C144.065 241.907 143.878 242.531 143.622 243C143.377 243.459 143.067 243.789 142.694 243.992C142.331 244.195 141.91 244.296 141.43 244.296C140.833 244.296 140.326 244.147 139.91 243.848C139.505 243.539 139.195 243.091 138.982 242.504C138.769 241.907 138.662 241.181 138.662 240.328V236.728H140.118V240.008C140.118 241.043 140.262 241.805 140.55 242.296C140.849 242.776 141.291 243.016 141.878 243.016C142.198 243.016 142.486 242.936 142.742 242.776C142.998 242.616 143.217 242.381 143.398 242.072C143.59 241.763 143.739 241.373 143.846 240.904C143.963 240.424 144.038 239.869 144.07 239.24V236.728H145.526V242.872C145.526 243.523 145.478 244.109 145.382 244.632C145.286 245.155 145.131 245.608 144.918 245.992C144.715 246.387 144.459 246.717 144.15 246.984C143.841 247.251 143.478 247.448 143.062 247.576C142.646 247.715 142.177 247.784 141.654 247.784ZM151.125 245.208C150.549 245.208 150.037 245.144 149.589 245.016C149.141 244.899 148.768 244.728 148.469 244.504C148.17 244.269 147.941 243.992 147.781 243.672C147.621 243.352 147.536 243 147.525 242.616L148.757 242.296C148.736 242.648 148.821 242.957 149.013 243.224C149.216 243.48 149.498 243.677 149.861 243.816C150.234 243.955 150.682 244.024 151.205 244.024C151.834 244.024 152.32 243.917 152.661 243.704C153.013 243.491 153.189 243.197 153.189 242.824C153.189 242.525 153.093 242.296 152.901 242.136C152.709 241.965 152.442 241.832 152.101 241.736C151.77 241.629 151.376 241.533 150.917 241.448C150.533 241.363 150.149 241.267 149.765 241.16C149.381 241.053 149.029 240.915 148.709 240.744C148.4 240.563 148.149 240.328 147.957 240.04C147.765 239.752 147.669 239.395 147.669 238.968C147.669 238.467 147.802 238.035 148.069 237.672C148.336 237.309 148.714 237.027 149.205 236.824C149.696 236.621 150.282 236.52 150.965 236.52C151.648 236.52 152.229 236.627 152.709 236.84C153.189 237.043 153.568 237.331 153.845 237.704C154.122 238.077 154.277 238.515 154.309 239.016L153.045 239.336C153.034 238.984 152.938 238.685 152.757 238.44C152.586 238.195 152.341 238.013 152.021 237.896C151.701 237.768 151.328 237.704 150.901 237.704C150.336 237.704 149.888 237.811 149.557 238.024C149.226 238.237 149.061 238.531 149.061 238.904C149.061 239.181 149.157 239.405 149.349 239.576C149.552 239.747 149.824 239.88 150.165 239.976C150.506 240.072 150.885 240.168 151.301 240.264C151.728 240.349 152.133 240.445 152.517 240.552C152.912 240.659 153.264 240.797 153.573 240.968C153.882 241.139 154.128 241.368 154.309 241.656C154.49 241.933 154.581 242.291 154.581 242.728C154.581 243.272 154.437 243.731 154.149 244.104C153.861 244.467 153.456 244.744 152.933 244.936C152.421 245.117 151.818 245.208 151.125 245.208ZM165.527 241.768V240.52H168.119C169.133 240.52 169.895 240.328 170.407 239.944C170.919 239.549 171.175 238.92 171.175 238.056C171.175 237.256 170.935 236.659 170.455 236.264C169.986 235.859 169.261 235.656 168.279 235.656H165.527V234.44H168.311C169.005 234.44 169.618 234.52 170.151 234.68C170.695 234.84 171.154 235.075 171.527 235.384C171.901 235.693 172.183 236.077 172.375 236.536C172.578 236.984 172.679 237.507 172.679 238.104C172.679 238.893 172.498 239.56 172.135 240.104C171.773 240.648 171.239 241.064 170.535 241.352C169.831 241.629 168.967 241.768 167.943 241.768H165.527ZM164.743 245V234.44H166.215V245H164.743ZM174.537 245V240.52V236.728H175.849L175.721 239.608H175.993C176.089 238.979 176.239 238.435 176.441 237.976C176.644 237.517 176.911 237.16 177.241 236.904C177.583 236.648 178.004 236.52 178.505 236.52C178.612 236.52 178.735 236.531 178.873 236.552C179.012 236.563 179.172 236.6 179.353 236.664L179.273 238.184C179.113 238.12 178.953 238.077 178.793 238.056C178.633 238.024 178.479 238.008 178.329 238.008C177.913 238.008 177.551 238.141 177.241 238.408C176.943 238.675 176.692 239.037 176.489 239.496C176.287 239.944 176.121 240.451 175.993 241.016V245H174.537ZM184.355 245.208C183.566 245.208 182.867 245.037 182.259 244.696C181.662 244.344 181.192 243.843 180.851 243.192C180.52 242.541 180.355 241.752 180.355 240.824C180.355 239.864 180.531 239.069 180.883 238.44C181.246 237.8 181.726 237.32 182.323 237C182.92 236.68 183.587 236.52 184.323 236.52C185.091 236.52 185.774 236.691 186.371 237.032C186.979 237.363 187.459 237.853 187.811 238.504C188.163 239.144 188.339 239.939 188.339 240.888C188.339 241.837 188.163 242.632 187.811 243.272C187.47 243.912 186.995 244.397 186.387 244.728C185.79 245.048 185.112 245.208 184.355 245.208ZM184.419 244.008C184.931 244.008 185.368 243.885 185.731 243.64C186.104 243.384 186.387 243.027 186.579 242.568C186.782 242.109 186.883 241.565 186.883 240.936C186.883 240.285 186.776 239.725 186.563 239.256C186.36 238.776 186.067 238.408 185.683 238.152C185.299 237.885 184.835 237.752 184.291 237.752C183.8 237.752 183.368 237.869 182.995 238.104C182.622 238.339 182.334 238.685 182.131 239.144C181.928 239.592 181.827 240.141 181.827 240.792C181.827 241.795 182.056 242.584 182.515 243.16C182.984 243.725 183.619 244.008 184.419 244.008ZM192.988 245.16C192.22 245.16 191.65 244.952 191.276 244.536C190.903 244.12 190.716 243.485 190.716 242.632V237.944H189.468L189.484 236.728H190.268C190.535 236.728 190.727 236.68 190.844 236.584C190.972 236.488 191.047 236.328 191.068 236.104L191.228 234.856H192.124V236.728H194.508V237.96H192.124V242.6C192.124 243.027 192.22 243.336 192.412 243.528C192.615 243.709 192.903 243.8 193.276 243.8C193.479 243.8 193.687 243.773 193.9 243.72C194.124 243.667 194.343 243.56 194.556 243.4V244.856C194.247 244.973 193.959 245.053 193.692 245.096C193.436 245.139 193.202 245.16 192.988 245.16ZM199.808 245.208C199.158 245.208 198.582 245.112 198.08 244.92C197.59 244.717 197.174 244.429 196.832 244.056C196.491 243.683 196.235 243.24 196.064 242.728C195.894 242.216 195.808 241.64 195.808 241C195.808 240.349 195.894 239.752 196.064 239.208C196.235 238.664 196.486 238.189 196.816 237.784C197.147 237.379 197.552 237.069 198.032 236.856C198.512 236.632 199.062 236.52 199.68 236.52C200.224 236.52 200.72 236.611 201.168 236.792C201.616 236.973 201.995 237.256 202.304 237.64C202.624 238.013 202.864 238.488 203.024 239.064C203.184 239.629 203.248 240.296 203.216 241.064L196.72 241.112V240.12L202.336 240.072L201.84 240.744C201.894 240.072 201.83 239.517 201.648 239.08C201.467 238.643 201.206 238.312 200.864 238.088C200.534 237.864 200.139 237.752 199.68 237.752C199.19 237.752 198.758 237.88 198.384 238.136C198.011 238.392 197.723 238.76 197.52 239.24C197.328 239.72 197.232 240.301 197.232 240.984C197.232 241.965 197.451 242.717 197.888 243.24C198.326 243.752 198.976 244.008 199.84 244.008C200.171 244.008 200.459 243.971 200.704 243.896C200.96 243.811 201.174 243.699 201.344 243.56C201.526 243.411 201.67 243.24 201.776 243.048C201.894 242.856 201.984 242.648 202.048 242.424L203.328 242.728C203.232 243.112 203.083 243.459 202.88 243.768C202.688 244.067 202.443 244.323 202.144 244.536C201.856 244.749 201.52 244.915 201.136 245.032C200.752 245.149 200.31 245.208 199.808 245.208ZM208.871 245.208C208.145 245.208 207.527 245.091 207.015 244.856C206.513 244.621 206.103 244.307 205.783 243.912C205.473 243.517 205.244 243.064 205.095 242.552C204.956 242.04 204.887 241.507 204.887 240.952C204.887 240.344 204.967 239.773 205.127 239.24C205.287 238.707 205.527 238.237 205.847 237.832C206.177 237.416 206.583 237.096 207.063 236.872C207.553 236.637 208.124 236.52 208.775 236.52C209.404 236.52 209.959 236.632 210.439 236.856C210.919 237.069 211.308 237.373 211.607 237.768C211.916 238.163 212.113 238.632 212.199 239.176L210.807 239.56C210.785 239.261 210.695 238.973 210.535 238.696C210.385 238.419 210.161 238.195 209.863 238.024C209.564 237.843 209.196 237.752 208.759 237.752C208.343 237.752 207.985 237.832 207.687 237.992C207.399 238.152 207.153 238.376 206.951 238.664C206.759 238.952 206.609 239.288 206.503 239.672C206.407 240.056 206.359 240.472 206.359 240.92C206.359 241.539 206.444 242.077 206.615 242.536C206.796 242.995 207.073 243.352 207.447 243.608C207.82 243.864 208.3 243.992 208.887 243.992C209.324 243.992 209.697 243.917 210.007 243.768C210.316 243.608 210.561 243.389 210.743 243.112C210.924 242.824 211.041 242.488 211.095 242.104L212.439 242.408C212.364 242.867 212.225 243.272 212.023 243.624C211.82 243.976 211.564 244.269 211.255 244.504C210.945 244.728 210.588 244.899 210.183 245.016C209.788 245.144 209.351 245.208 208.871 245.208ZM216.676 245.16C215.908 245.16 215.337 244.952 214.964 244.536C214.591 244.12 214.404 243.485 214.404 242.632V237.944H213.156L213.172 236.728H213.956C214.223 236.728 214.415 236.68 214.532 236.584C214.66 236.488 214.735 236.328 214.756 236.104L214.916 234.856H215.812V236.728H218.196V237.96H215.812V242.6C215.812 243.027 215.908 243.336 216.1 243.528C216.303 243.709 216.591 243.8 216.964 243.8C217.167 243.8 217.375 243.773 217.588 243.72C217.812 243.667 218.031 243.56 218.244 243.4V244.856C217.935 244.973 217.647 245.053 217.38 245.096C217.124 245.139 216.889 245.16 216.676 245.16ZM223.496 245.208C222.845 245.208 222.269 245.112 221.768 244.92C221.277 244.717 220.861 244.429 220.52 244.056C220.178 243.683 219.922 243.24 219.752 242.728C219.581 242.216 219.496 241.64 219.496 241C219.496 240.349 219.581 239.752 219.752 239.208C219.922 238.664 220.173 238.189 220.504 237.784C220.834 237.379 221.24 237.069 221.72 236.856C222.2 236.632 222.749 236.52 223.368 236.52C223.912 236.52 224.408 236.611 224.856 236.792C225.304 236.973 225.682 237.256 225.992 237.64C226.312 238.013 226.552 238.488 226.712 239.064C226.872 239.629 226.936 240.296 226.904 241.064L220.408 241.112V240.12L226.024 240.072L225.528 240.744C225.581 240.072 225.517 239.517 225.336 239.08C225.154 238.643 224.893 238.312 224.552 238.088C224.221 237.864 223.826 237.752 223.368 237.752C222.877 237.752 222.445 237.88 222.072 238.136C221.698 238.392 221.41 238.76 221.208 239.24C221.016 239.72 220.92 240.301 220.92 240.984C220.92 241.965 221.138 242.717 221.576 243.24C222.013 243.752 222.664 244.008 223.528 244.008C223.858 244.008 224.146 243.971 224.392 243.896C224.648 243.811 224.861 243.699 225.032 243.56C225.213 243.411 225.357 243.24 225.464 243.048C225.581 242.856 225.672 242.648 225.736 242.424L227.016 242.728C226.92 243.112 226.77 243.459 226.568 243.768C226.376 244.067 226.13 244.323 225.832 244.536C225.544 244.749 225.208 244.915 224.824 245.032C224.44 245.149 223.997 245.208 223.496 245.208ZM231.949 245.208C231.245 245.208 230.643 245.021 230.141 244.648C229.64 244.275 229.256 243.763 228.989 243.112C228.733 242.461 228.605 241.715 228.605 240.872C228.605 240.029 228.733 239.283 228.989 238.632C229.245 237.981 229.619 237.469 230.109 237.096C230.6 236.723 231.203 236.536 231.917 236.536C232.504 236.536 232.984 236.659 233.357 236.904C233.731 237.149 234.029 237.469 234.253 237.864C234.488 238.248 234.659 238.669 234.765 239.128H235.053C235 238.819 234.952 238.499 234.909 238.168C234.867 237.827 234.829 237.496 234.797 237.176C234.765 236.845 234.749 236.552 234.749 236.296V233.8H236.221V240.92V245H234.909L234.989 242.76H234.733C234.605 243.24 234.424 243.667 234.189 244.04C233.955 244.403 233.656 244.691 233.293 244.904C232.931 245.107 232.483 245.208 231.949 245.208ZM232.285 243.928C232.669 243.928 233.016 243.837 233.325 243.656C233.635 243.475 233.896 243.24 234.109 242.952C234.323 242.653 234.483 242.333 234.589 241.992C234.707 241.651 234.765 241.32 234.765 241V240.808C234.765 240.584 234.733 240.344 234.669 240.088C234.605 239.821 234.509 239.555 234.381 239.288C234.264 239.021 234.104 238.776 233.901 238.552C233.709 238.317 233.48 238.136 233.213 238.008C232.947 237.869 232.648 237.8 232.317 237.8C231.837 237.8 231.432 237.939 231.101 238.216C230.781 238.483 230.536 238.851 230.365 239.32C230.205 239.789 230.125 240.317 230.125 240.904C230.125 241.512 230.211 242.045 230.381 242.504C230.552 242.952 230.797 243.304 231.117 243.56C231.448 243.805 231.837 243.928 232.285 243.928ZM247.251 245.208C246.675 245.208 246.152 245.144 245.683 245.016C245.214 244.899 244.803 244.723 244.451 244.488C244.099 244.243 243.8 243.949 243.555 243.608C243.32 243.267 243.139 242.877 243.011 242.44C242.894 242.003 242.835 241.517 242.835 240.984V234.44H244.307V240.936C244.307 241.576 244.419 242.115 244.643 242.552C244.867 242.979 245.198 243.304 245.635 243.528C246.072 243.752 246.611 243.864 247.251 243.864C247.912 243.864 248.456 243.757 248.883 243.544C249.32 243.32 249.646 242.989 249.859 242.552C250.083 242.115 250.195 241.576 250.195 240.936V234.44H251.651V240.984C251.651 242.328 251.278 243.368 250.531 244.104C249.784 244.84 248.691 245.208 247.251 245.208ZM254.162 245V239.864V236.728H255.474L255.33 239.352H255.602C255.752 238.701 255.949 238.168 256.194 237.752C256.45 237.336 256.77 237.027 257.154 236.824C257.538 236.621 257.986 236.52 258.498 236.52C259.416 236.52 260.109 236.851 260.578 237.512C261.058 238.163 261.298 239.139 261.298 240.44V245H259.826V240.568C259.826 239.629 259.677 238.936 259.378 238.488C259.09 238.04 258.664 237.816 258.098 237.816C257.586 237.816 257.149 237.976 256.786 238.296C256.434 238.616 256.157 239.037 255.954 239.56C255.752 240.083 255.64 240.648 255.618 241.256V245H254.162ZM266.254 245.16C265.486 245.16 264.915 244.952 264.542 244.536C264.169 244.12 263.982 243.485 263.982 242.632V237.944H262.734L262.75 236.728H263.534C263.801 236.728 263.993 236.68 264.11 236.584C264.238 236.488 264.313 236.328 264.334 236.104L264.494 234.856H265.39V236.728H267.774V237.96H265.39V242.6C265.39 243.027 265.486 243.336 265.678 243.528C265.881 243.709 266.169 243.8 266.542 243.8C266.745 243.8 266.953 243.773 267.166 243.72C267.39 243.667 267.609 243.56 267.822 243.4V244.856C267.513 244.973 267.225 245.053 266.958 245.096C266.702 245.139 266.467 245.16 266.254 245.16ZM269.632 245V236.728H271.088V245H269.632ZM270.368 235.288C270.026 235.288 269.77 235.219 269.6 235.08C269.429 234.941 269.344 234.733 269.344 234.456C269.344 234.179 269.429 233.971 269.6 233.832C269.77 233.693 270.021 233.624 270.352 233.624C270.693 233.624 270.949 233.693 271.12 233.832C271.29 233.971 271.376 234.179 271.376 234.456C271.376 234.723 271.29 234.931 271.12 235.08C270.949 235.219 270.698 235.288 270.368 235.288ZM273.616 245V233.8H275.072V245H273.616ZM282.527 245V243.736H285.647C286.373 243.736 286.97 243.571 287.439 243.24C287.909 242.899 288.255 242.429 288.479 241.832C288.714 241.235 288.831 240.541 288.831 239.752C288.831 239.059 288.757 238.456 288.607 237.944C288.469 237.432 288.25 237.016 287.951 236.696C287.653 236.365 287.274 236.12 286.815 235.96C286.367 235.789 285.834 235.704 285.215 235.704H282.527V234.44H285.183C286.378 234.44 287.354 234.648 288.111 235.064C288.869 235.48 289.429 236.077 289.791 236.856C290.154 237.635 290.335 238.563 290.335 239.64C290.335 240.355 290.255 241 290.095 241.576C289.946 242.152 289.727 242.653 289.439 243.08C289.162 243.507 288.831 243.864 288.447 244.152C288.063 244.429 287.637 244.643 287.167 244.792C286.698 244.931 286.207 245 285.695 245H282.527ZM281.743 245V234.44H283.215V245H281.743ZM296.136 245.208C295.486 245.208 294.91 245.112 294.408 244.92C293.918 244.717 293.502 244.429 293.16 244.056C292.819 243.683 292.563 243.24 292.392 242.728C292.222 242.216 292.136 241.64 292.136 241C292.136 240.349 292.222 239.752 292.392 239.208C292.563 238.664 292.814 238.189 293.144 237.784C293.475 237.379 293.88 237.069 294.36 236.856C294.84 236.632 295.39 236.52 296.008 236.52C296.552 236.52 297.048 236.611 297.496 236.792C297.944 236.973 298.323 237.256 298.632 237.64C298.952 238.013 299.192 238.488 299.352 239.064C299.512 239.629 299.576 240.296 299.544 241.064L293.048 241.112V240.12L298.664 240.072L298.168 240.744C298.222 240.072 298.158 239.517 297.976 239.08C297.795 238.643 297.534 238.312 297.192 238.088C296.862 237.864 296.467 237.752 296.008 237.752C295.518 237.752 295.086 237.88 294.712 238.136C294.339 238.392 294.051 238.76 293.848 239.24C293.656 239.72 293.56 240.301 293.56 240.984C293.56 241.965 293.779 242.717 294.216 243.24C294.654 243.752 295.304 244.008 296.168 244.008C296.499 244.008 296.787 243.971 297.032 243.896C297.288 243.811 297.502 243.699 297.672 243.56C297.854 243.411 297.998 243.24 298.104 243.048C298.222 242.856 298.312 242.648 298.376 242.424L299.656 242.728C299.56 243.112 299.411 243.459 299.208 243.768C299.016 244.067 298.771 244.323 298.472 244.536C298.184 244.749 297.848 244.915 297.464 245.032C297.08 245.149 296.638 245.208 296.136 245.208ZM301.616 245V233.8H303.072V245H301.616ZM305.6 245V236.728H307.056V245H305.6ZM306.336 235.288C305.995 235.288 305.739 235.219 305.568 235.08C305.398 234.941 305.312 234.733 305.312 234.456C305.312 234.179 305.398 233.971 305.568 233.832C305.739 233.693 305.99 233.624 306.32 233.624C306.662 233.624 306.918 233.693 307.088 233.832C307.259 233.971 307.344 234.179 307.344 234.456C307.344 234.723 307.259 234.931 307.088 235.08C306.918 235.219 306.667 235.288 306.336 235.288ZM311.584 245L308.624 236.744H310.24L312.496 243.768H312.72L314.96 236.744H316.544L313.6 245H311.584ZM321.496 245.208C320.845 245.208 320.269 245.112 319.768 244.92C319.277 244.717 318.861 244.429 318.52 244.056C318.178 243.683 317.922 243.24 317.752 242.728C317.581 242.216 317.496 241.64 317.496 241C317.496 240.349 317.581 239.752 317.752 239.208C317.922 238.664 318.173 238.189 318.504 237.784C318.834 237.379 319.24 237.069 319.72 236.856C320.2 236.632 320.749 236.52 321.368 236.52C321.912 236.52 322.408 236.611 322.856 236.792C323.304 236.973 323.682 237.256 323.992 237.64C324.312 238.013 324.552 238.488 324.712 239.064C324.872 239.629 324.936 240.296 324.904 241.064L318.408 241.112V240.12L324.024 240.072L323.528 240.744C323.581 240.072 323.517 239.517 323.336 239.08C323.154 238.643 322.893 238.312 322.552 238.088C322.221 237.864 321.826 237.752 321.368 237.752C320.877 237.752 320.445 237.88 320.072 238.136C319.698 238.392 319.41 238.76 319.208 239.24C319.016 239.72 318.92 240.301 318.92 240.984C318.92 241.965 319.138 242.717 319.576 243.24C320.013 243.752 320.664 244.008 321.528 244.008C321.858 244.008 322.146 243.971 322.392 243.896C322.648 243.811 322.861 243.699 323.032 243.56C323.213 243.411 323.357 243.24 323.464 243.048C323.581 242.856 323.672 242.648 323.736 242.424L325.016 242.728C324.92 243.112 324.77 243.459 324.568 243.768C324.376 244.067 324.13 244.323 323.832 244.536C323.544 244.749 323.208 244.915 322.824 245.032C322.44 245.149 321.997 245.208 321.496 245.208ZM326.975 245V240.52V236.728H328.287L328.159 239.608H328.431C328.527 238.979 328.676 238.435 328.879 237.976C329.082 237.517 329.348 237.16 329.679 236.904C330.02 236.648 330.442 236.52 330.943 236.52C331.05 236.52 331.172 236.531 331.311 236.552C331.45 236.563 331.61 236.6 331.791 236.664L331.711 238.184C331.551 238.12 331.391 238.077 331.231 238.056C331.071 238.024 330.916 238.008 330.767 238.008C330.351 238.008 329.988 238.141 329.679 238.408C329.38 238.675 329.13 239.037 328.927 239.496C328.724 239.944 328.559 240.451 328.431 241.016V245H326.975ZM336.326 247.784C335.889 247.784 335.457 247.731 335.03 247.624C334.614 247.528 334.23 247.379 333.878 247.176C333.526 246.973 333.238 246.712 333.014 246.392L333.75 245.336C333.995 245.699 334.342 245.976 334.79 246.168C335.238 246.36 335.729 246.456 336.262 246.456C336.859 246.456 337.355 246.323 337.75 246.056C338.155 245.8 338.459 245.4 338.662 244.856C338.865 244.301 338.971 243.613 338.982 242.792L339.158 241.128H338.854C338.737 241.907 338.55 242.531 338.294 243C338.049 243.459 337.739 243.789 337.366 243.992C337.003 244.195 336.582 244.296 336.102 244.296C335.505 244.296 334.998 244.147 334.582 243.848C334.177 243.539 333.867 243.091 333.654 242.504C333.441 241.907 333.334 241.181 333.334 240.328V236.728H334.79V240.008C334.79 241.043 334.934 241.805 335.222 242.296C335.521 242.776 335.963 243.016 336.55 243.016C336.87 243.016 337.158 242.936 337.414 242.776C337.67 242.616 337.889 242.381 338.07 242.072C338.262 241.763 338.411 241.373 338.518 240.904C338.635 240.424 338.71 239.869 338.742 239.24V236.728H340.198V242.872C340.198 243.523 340.15 244.109 340.054 244.632C339.958 245.155 339.803 245.608 339.59 245.992C339.387 246.387 339.131 246.717 338.822 246.984C338.513 247.251 338.15 247.448 337.734 247.576C337.318 247.715 336.849 247.784 336.326 247.784ZM178.946 273V262.44H180.434V273H178.946ZM186.141 273.208C185.565 273.208 185.053 273.144 184.605 273.016C184.157 272.899 183.783 272.728 183.485 272.504C183.186 272.269 182.957 271.992 182.797 271.672C182.637 271.352 182.551 271 182.541 270.616L183.773 270.296C183.751 270.648 183.837 270.957 184.029 271.224C184.231 271.48 184.514 271.677 184.877 271.816C185.25 271.955 185.698 272.024 186.221 272.024C186.85 272.024 187.335 271.917 187.677 271.704C188.029 271.491 188.205 271.197 188.205 270.824C188.205 270.525 188.109 270.296 187.917 270.136C187.725 269.965 187.458 269.832 187.117 269.736C186.786 269.629 186.391 269.533 185.933 269.448C185.549 269.363 185.165 269.267 184.781 269.16C184.397 269.053 184.045 268.915 183.725 268.744C183.415 268.563 183.165 268.328 182.973 268.04C182.781 267.752 182.685 267.395 182.685 266.968C182.685 266.467 182.818 266.035 183.085 265.672C183.351 265.309 183.73 265.027 184.221 264.824C184.711 264.621 185.298 264.52 185.981 264.52C186.663 264.52 187.245 264.627 187.725 264.84C188.205 265.043 188.583 265.331 188.861 265.704C189.138 266.077 189.293 266.515 189.325 267.016L188.061 267.336C188.05 266.984 187.954 266.685 187.773 266.44C187.602 266.195 187.357 266.013 187.037 265.896C186.717 265.768 186.343 265.704 185.917 265.704C185.351 265.704 184.903 265.811 184.573 266.024C184.242 266.237 184.077 266.531 184.077 266.904C184.077 267.181 184.173 267.405 184.365 267.576C184.567 267.747 184.839 267.88 185.181 267.976C185.522 268.072 185.901 268.168 186.317 268.264C186.743 268.349 187.149 268.445 187.533 268.552C187.927 268.659 188.279 268.797 188.589 268.968C188.898 269.139 189.143 269.368 189.325 269.656C189.506 269.933 189.597 270.291 189.597 270.728C189.597 271.272 189.453 271.731 189.165 272.104C188.877 272.467 188.471 272.744 187.949 272.936C187.437 273.117 186.834 273.208 186.141 273.208ZM200.176 273.208C199.419 273.208 198.736 273.091 198.128 272.856C197.531 272.621 197.024 272.275 196.608 271.816C196.192 271.357 195.872 270.797 195.648 270.136C195.435 269.464 195.328 268.701 195.328 267.848C195.328 266.984 195.44 266.211 195.664 265.528C195.888 264.835 196.208 264.243 196.624 263.752C197.04 263.261 197.541 262.888 198.128 262.632C198.715 262.365 199.371 262.232 200.096 262.232C200.651 262.232 201.163 262.312 201.632 262.472C202.101 262.621 202.507 262.845 202.848 263.144C203.2 263.432 203.472 263.784 203.664 264.2C203.856 264.616 203.957 265.08 203.968 265.592L202.576 265.944C202.587 265.4 202.475 264.952 202.24 264.6C202.005 264.237 201.696 263.965 201.312 263.784C200.928 263.603 200.512 263.512 200.064 263.512C199.648 263.512 199.243 263.597 198.848 263.768C198.464 263.928 198.123 264.184 197.824 264.536C197.525 264.877 197.285 265.32 197.104 265.864C196.933 266.397 196.848 267.043 196.848 267.8C196.848 268.771 196.987 269.555 197.264 270.152C197.552 270.749 197.952 271.192 198.464 271.48C198.976 271.757 199.568 271.896 200.24 271.896C200.891 271.896 201.413 271.779 201.808 271.544C202.203 271.299 202.496 270.963 202.688 270.536C202.88 270.099 202.992 269.597 203.024 269.032L204.336 269.272C204.325 269.805 204.24 270.312 204.08 270.792C203.92 271.272 203.675 271.693 203.344 272.056C203.013 272.419 202.587 272.701 202.064 272.904C201.541 273.107 200.912 273.208 200.176 273.208ZM209.808 273.208C209.019 273.208 208.32 273.037 207.712 272.696C207.115 272.344 206.646 271.843 206.304 271.192C205.974 270.541 205.808 269.752 205.808 268.824C205.808 267.864 205.984 267.069 206.336 266.44C206.699 265.8 207.179 265.32 207.776 265C208.374 264.68 209.04 264.52 209.776 264.52C210.544 264.52 211.227 264.691 211.824 265.032C212.432 265.363 212.912 265.853 213.264 266.504C213.616 267.144 213.792 267.939 213.792 268.888C213.792 269.837 213.616 270.632 213.264 271.272C212.923 271.912 212.448 272.397 211.84 272.728C211.243 273.048 210.566 273.208 209.808 273.208ZM209.872 272.008C210.384 272.008 210.822 271.885 211.184 271.64C211.558 271.384 211.84 271.027 212.032 270.568C212.235 270.109 212.336 269.565 212.336 268.936C212.336 268.285 212.23 267.725 212.016 267.256C211.814 266.776 211.52 266.408 211.136 266.152C210.752 265.885 210.288 265.752 209.744 265.752C209.254 265.752 208.822 265.869 208.448 266.104C208.075 266.339 207.787 266.685 207.584 267.144C207.382 267.592 207.28 268.141 207.28 268.792C207.28 269.795 207.51 270.584 207.968 271.16C208.438 271.725 209.072 272.008 209.872 272.008ZM215.866 273V267.864V264.728H217.178L217.034 267.352H217.306C217.455 266.701 217.652 266.168 217.898 265.752C218.154 265.336 218.474 265.027 218.858 264.824C219.242 264.621 219.69 264.52 220.202 264.52C221.119 264.52 221.812 264.851 222.282 265.512C222.762 266.163 223.002 267.139 223.002 268.44V273H221.53V268.568C221.53 267.629 221.38 266.936 221.082 266.488C220.794 266.04 220.367 265.816 219.802 265.816C219.29 265.816 218.852 265.976 218.49 266.296C218.138 266.616 217.86 267.037 217.658 267.56C217.455 268.083 217.343 268.648 217.322 269.256V273H215.866ZM226.037 273V267.16H224.565V265.992L226.629 266.12V265.848C226.363 265.741 226.139 265.597 225.957 265.416C225.787 265.224 225.653 265.005 225.557 264.76C225.472 264.515 225.429 264.253 225.429 263.976C225.429 263.528 225.525 263.139 225.717 262.808C225.92 262.477 226.203 262.216 226.565 262.024C226.939 261.832 227.381 261.736 227.893 261.736C228.299 261.736 228.661 261.795 228.981 261.912C229.312 262.019 229.584 262.163 229.797 262.344L229.621 263.704C229.419 263.512 229.173 263.363 228.885 263.256C228.597 263.139 228.309 263.08 228.021 263.08C227.669 263.08 227.381 263.192 227.157 263.416C226.933 263.64 226.821 263.987 226.821 264.456C226.821 264.723 226.859 264.952 226.933 265.144C227.008 265.336 227.104 265.501 227.221 265.64C227.349 265.768 227.477 265.875 227.605 265.96H229.653L229.637 267.16H227.477V273H226.037ZM231.366 273V264.728H232.822V273H231.366ZM232.102 263.288C231.761 263.288 231.505 263.219 231.334 263.08C231.163 262.941 231.078 262.733 231.078 262.456C231.078 262.179 231.163 261.971 231.334 261.832C231.505 261.693 231.755 261.624 232.086 261.624C232.427 261.624 232.683 261.693 232.854 261.832C233.025 261.971 233.11 262.179 233.11 262.456C233.11 262.723 233.025 262.931 232.854 263.08C232.683 263.219 232.433 263.288 232.102 263.288ZM235.35 273V268.52V264.728H236.662L236.534 267.608H236.806C236.902 266.979 237.051 266.435 237.254 265.976C237.457 265.517 237.723 265.16 238.054 264.904C238.395 264.648 238.817 264.52 239.318 264.52C239.425 264.52 239.547 264.531 239.686 264.552C239.825 264.563 239.985 264.6 240.166 264.664L240.086 266.184C239.926 266.12 239.766 266.077 239.606 266.056C239.446 266.024 239.291 266.008 239.142 266.008C238.726 266.008 238.363 266.141 238.054 266.408C237.755 266.675 237.505 267.037 237.302 267.496C237.099 267.944 236.934 268.451 236.806 269.016V273H235.35ZM241.741 273V267.88V264.728H243.037L242.893 267.352H243.165C243.303 266.723 243.49 266.2 243.725 265.784C243.959 265.357 244.247 265.043 244.589 264.84C244.941 264.627 245.341 264.52 245.789 264.52C246.322 264.52 246.759 264.653 247.101 264.92C247.442 265.176 247.693 265.512 247.853 265.928C248.023 266.344 248.109 266.803 248.109 267.304H248.365C248.482 266.707 248.663 266.2 248.909 265.784C249.154 265.368 249.458 265.053 249.821 264.84C250.183 264.627 250.599 264.52 251.069 264.52C251.495 264.52 251.869 264.605 252.189 264.776C252.509 264.947 252.781 265.203 253.005 265.544C253.229 265.875 253.394 266.285 253.501 266.776C253.607 267.267 253.661 267.832 253.661 268.472V273H252.205V268.664C252.205 268.035 252.146 267.512 252.029 267.096C251.911 266.669 251.735 266.355 251.501 266.152C251.277 265.939 250.989 265.832 250.637 265.832C250.242 265.832 249.885 265.971 249.565 266.248C249.255 266.515 248.999 266.893 248.797 267.384C248.605 267.864 248.477 268.413 248.413 269.032V273H246.989V268.808C246.989 268.147 246.93 267.597 246.813 267.16C246.695 266.723 246.519 266.392 246.285 266.168C246.061 265.944 245.767 265.832 245.405 265.832C244.978 265.832 244.61 265.981 244.301 266.28C243.991 266.568 243.741 266.957 243.549 267.448C243.367 267.939 243.25 268.488 243.197 269.096V273H241.741ZM259.605 273.208C258.954 273.208 258.378 273.112 257.877 272.92C257.386 272.717 256.97 272.429 256.629 272.056C256.288 271.683 256.032 271.24 255.861 270.728C255.69 270.216 255.605 269.64 255.605 269C255.605 268.349 255.69 267.752 255.861 267.208C256.032 266.664 256.282 266.189 256.613 265.784C256.944 265.379 257.349 265.069 257.829 264.856C258.309 264.632 258.858 264.52 259.477 264.52C260.021 264.52 260.517 264.611 260.965 264.792C261.413 264.973 261.792 265.256 262.101 265.64C262.421 266.013 262.661 266.488 262.821 267.064C262.981 267.629 263.045 268.296 263.013 269.064L256.517 269.112V268.12L262.133 268.072L261.637 268.744C261.69 268.072 261.626 267.517 261.445 267.08C261.264 266.643 261.002 266.312 260.661 266.088C260.33 265.864 259.936 265.752 259.477 265.752C258.986 265.752 258.554 265.88 258.181 266.136C257.808 266.392 257.52 266.76 257.317 267.24C257.125 267.72 257.029 268.301 257.029 268.984C257.029 269.965 257.248 270.717 257.685 271.24C258.122 271.752 258.773 272.008 259.637 272.008C259.968 272.008 260.256 271.971 260.501 271.896C260.757 271.811 260.97 271.699 261.141 271.56C261.322 271.411 261.466 271.24 261.573 271.048C261.69 270.856 261.781 270.648 261.845 270.424L263.125 270.728C263.029 271.112 262.88 271.459 262.677 271.768C262.485 272.067 262.24 272.323 261.941 272.536C261.653 272.749 261.317 272.915 260.933 273.032C260.549 273.149 260.106 273.208 259.605 273.208ZM268.059 273.208C267.355 273.208 266.752 273.021 266.251 272.648C265.749 272.275 265.365 271.763 265.099 271.112C264.843 270.461 264.715 269.715 264.715 268.872C264.715 268.029 264.843 267.283 265.099 266.632C265.355 265.981 265.728 265.469 266.219 265.096C266.709 264.723 267.312 264.536 268.027 264.536C268.613 264.536 269.093 264.659 269.467 264.904C269.84 265.149 270.139 265.469 270.363 265.864C270.597 266.248 270.768 266.669 270.875 267.128H271.163C271.109 266.819 271.061 266.499 271.019 266.168C270.976 265.827 270.939 265.496 270.907 265.176C270.875 264.845 270.859 264.552 270.859 264.296V261.8H272.331V268.92V273H271.019L271.099 270.76H270.843C270.715 271.24 270.533 271.667 270.299 272.04C270.064 272.403 269.765 272.691 269.403 272.904C269.04 273.107 268.592 273.208 268.059 273.208ZM268.395 271.928C268.779 271.928 269.125 271.837 269.435 271.656C269.744 271.475 270.005 271.24 270.219 270.952C270.432 270.653 270.592 270.333 270.699 269.992C270.816 269.651 270.875 269.32 270.875 269V268.808C270.875 268.584 270.843 268.344 270.779 268.088C270.715 267.821 270.619 267.555 270.491 267.288C270.373 267.021 270.213 266.776 270.011 266.552C269.819 266.317 269.589 266.136 269.323 266.008C269.056 265.869 268.757 265.8 268.427 265.8C267.947 265.8 267.541 265.939 267.211 266.216C266.891 266.483 266.645 266.851 266.475 267.32C266.315 267.789 266.235 268.317 266.235 268.904C266.235 269.512 266.32 270.045 266.491 270.504C266.661 270.952 266.907 271.304 267.227 271.56C267.557 271.805 267.947 271.928 268.395 271.928ZM275.01 273.192C274.668 273.192 274.412 273.117 274.242 272.968C274.071 272.819 273.986 272.579 273.986 272.248C273.986 271.928 274.071 271.693 274.242 271.544C274.412 271.395 274.668 271.32 275.01 271.32C275.362 271.32 275.623 271.395 275.794 271.544C275.975 271.693 276.066 271.933 276.066 272.264C276.066 272.883 275.714 273.192 275.01 273.192Z" fill="black"/>
<rect x="158" width="133.07" height="133.07" rx="66.5349" fill="url(#paint0_linear_4_3835)"/>
<path d="M239.969 65.4C239.969 66.0329 239.767 66.6516 239.389 67.1778C239.012 67.7041 238.475 68.1142 237.847 68.3564C237.219 68.5986 236.527 68.662 235.861 68.5385C235.194 68.415 234.581 68.1103 234.101 67.6627C233.62 67.2152 233.292 66.645 233.16 66.0243C233.027 65.4035 233.095 64.7601 233.355 64.1754C233.616 63.5907 234.056 63.0909 234.621 62.7393C235.187 62.3877 235.851 62.2 236.531 62.2C237.443 62.2 238.317 62.5371 238.962 63.1373C239.607 63.7374 239.969 64.5513 239.969 65.4ZM230.516 54.2H221.922C221.238 54.2 220.582 54.4529 220.099 54.9029C219.615 55.353 219.344 55.9635 219.344 56.6C219.344 57.2365 219.615 57.847 220.099 58.2971C220.582 58.7471 221.238 59 221.922 59H230.516C231.199 59 231.855 58.7471 232.339 58.2971C232.822 57.847 233.094 57.2365 233.094 56.6C233.094 55.9635 232.822 55.353 232.339 54.9029C231.855 54.4529 231.199 54.2 230.516 54.2ZM252 63.8V70.2C252 71.6694 251.38 73.08 250.273 74.1276C249.166 75.1752 247.661 75.7759 246.083 75.8L242.805 84.346C242.506 85.123 241.957 85.7951 241.233 86.2702C240.508 86.7454 239.643 87.0003 238.757 87H236.024C235.138 87.0003 234.273 86.7454 233.549 86.2702C232.824 85.7951 232.275 85.123 231.977 84.346L231.762 83.8H220.669L220.454 84.346C220.157 85.122 219.609 85.7935 218.885 86.2685C218.162 86.7435 217.299 86.999 216.413 87H213.68C212.794 87.0003 211.929 86.7454 211.205 86.2702C210.48 85.7951 209.931 85.123 209.633 84.346L206.99 77.456C204.731 75.0358 203.194 72.1063 202.532 68.96C202.287 69.3333 202.157 69.7623 202.156 70.2C202.156 70.8365 201.885 71.447 201.401 71.8971C200.918 72.3471 200.262 72.6 199.578 72.6C198.894 72.6 198.239 72.3471 197.755 71.8971C197.272 71.447 197 70.8365 197 70.2C197.002 68.6915 197.513 67.2217 198.459 65.9972C199.406 64.7728 200.741 63.8554 202.277 63.374C202.818 58.8746 205.12 54.7184 208.744 51.6983C212.367 48.6782 217.058 47.0057 221.922 47H244.266C244.949 47 245.605 47.2529 246.089 47.7029C246.572 48.153 246.844 48.7635 246.844 49.4C246.844 50.0365 246.572 50.647 246.089 51.0971C245.605 51.5471 244.949 51.8 244.266 51.8H242.117C244.187 53.5546 245.834 55.6986 246.947 58.09L247.037 58.29C248.427 58.5219 249.685 59.2005 250.592 60.2075C251.499 61.2145 251.997 62.4859 252 63.8ZM246.844 63.8C246.844 63.5878 246.753 63.3843 246.592 63.2343C246.431 63.0843 246.212 63 245.984 63H245.198C244.649 63 244.114 62.8368 243.672 62.5343C243.229 62.2318 242.902 61.8057 242.738 61.318C241.805 58.5569 239.95 56.145 237.442 54.4332C234.935 52.7214 231.906 51.7989 228.797 51.8H221.922C219.087 51.7998 216.313 52.5676 213.938 54.0099C211.563 55.4521 209.691 57.5063 208.549 59.9222C207.407 62.338 207.045 65.011 207.507 67.6151C207.968 70.2192 209.234 72.642 211.15 74.588C211.382 74.8229 211.561 75.0991 211.676 75.4L214.286 82.2H215.807L216.424 80.6C216.602 80.1325 216.93 79.7277 217.365 79.4412C217.8 79.1547 218.319 79.0006 218.852 79H233.586C234.118 79.0006 234.638 79.1547 235.072 79.4412C235.507 79.7277 235.836 80.1325 236.013 80.6L236.63 82.2H238.151L241.838 72.6C242.015 72.1325 242.344 71.7277 242.779 71.4412C243.214 71.1547 243.733 71.0006 244.266 71H245.984C246.212 71 246.431 70.9157 246.592 70.7657C246.753 70.6157 246.844 70.4122 246.844 70.2V63.8Z" fill="white"/>
<defs>
<linearGradient id="paint0_linear_4_3835" x1="224.535" y1="0" x2="224.535" y2="133.07" gradientUnits="userSpaceOnUse">
<stop stop-color="#91C730"/>
<stop offset="1" stop-color="#AEE44C"/>
</linearGradient>
</defs>
</svg>
