<?xml version="1.0" encoding="UTF-8"?>
<svg version="1.1" xmlns="http://www.w3.org/2000/svg" width="256" height="256">
<path d="M0 0 C0.80278969 -0.00297112 1.60557939 -0.00594224 2.43269604 -0.0090034 C5.13183285 -0.01769847 7.83092535 -0.01919933 10.53007507 -0.02069092 C12.46164546 -0.02531851 14.39321493 -0.03034309 16.32478333 -0.03573608 C21.57897286 -0.04886753 26.83314961 -0.05530646 32.08735299 -0.05974674 C35.36876552 -0.06267619 38.65017454 -0.06678075 41.93158531 -0.07125092 C52.19490458 -0.08492764 62.45821586 -0.09459351 72.72154361 -0.09845281 C84.57552005 -0.10293452 96.42938124 -0.12048696 108.28332263 -0.1494534 C117.44178991 -0.17105757 126.60022474 -0.18115641 135.75871724 -0.18249393 C141.23067253 -0.18354283 146.70251951 -0.18946896 152.17444801 -0.20731354 C157.32164939 -0.22377237 162.46866077 -0.22596033 167.61587906 -0.21717453 C169.50489625 -0.21640299 171.39392356 -0.22076223 173.28291512 -0.23063278 C175.86233966 -0.24332043 178.44108807 -0.23749292 181.02050781 -0.22705078 C182.14099792 -0.23913539 182.14099792 -0.23913539 183.2841242 -0.25146413 C189.48183616 -0.19281056 193.35410973 1.5036654 197.95072937 5.57794189 C201.66345751 9.80632672 202.45068759 12.57172211 202.46815491 18.19973755 C202.48094986 20.0629213 202.48094986 20.0629213 202.4940033 21.96374512 C202.49330429 23.33758558 202.49238124 24.71142594 202.49125671 26.08526611 C202.49724204 27.53423407 202.5040476 28.98319885 202.51161194 30.43215942 C202.52927871 34.36610132 202.5339676 38.2999562 202.53524351 42.23393393 C202.53666528 44.69238407 202.54093536 47.1508121 202.54623795 49.60925674 C202.56474042 58.18786269 202.57290828 66.7664065 202.57133484 75.34503174 C202.57013336 83.33852851 202.59123633 91.3317553 202.62282217 99.32518375 C202.64898327 106.19070704 202.65970221 113.05614215 202.65842402 119.9217149 C202.65791434 124.02101515 202.66360084 128.12007547 202.68478012 132.21932602 C202.70415991 136.07555332 202.70428912 139.93131175 202.68974686 143.78755569 C202.68765731 145.20087113 202.69236848 146.61421589 202.70446777 148.02748108 C202.77356402 156.65903137 202.68778161 161.5217402 196.60307312 167.78497314 C191.62161979 171.75685193 188.44012904 172.27008768 182.15898132 172.34576416 C181.44653259 172.35566376 180.73408386 172.36556335 180.00004578 172.37576294 C177.64640113 172.4073369 175.29273631 172.43211908 172.93901062 172.45684814 C171.30661496 172.47742122 169.67422458 172.49841779 168.0418396 172.51982117 C163.74617291 172.57500533 159.45045843 172.62443072 155.15470886 172.67266846 C150.77091725 172.72291017 146.38719499 172.7785823 142.00346375 172.83380127 C133.40260935 172.94133816 124.80169601 173.04229121 116.20072937 173.14044189 C119.66572937 182.54544189 119.66572937 182.54544189 123.20072937 192.14044189 C128.33076729 192.38956337 128.33076729 192.38956337 133.4617157 192.61846924 C137.17031016 192.82411455 139.05306393 193.04199827 142.20072937 195.14044189 C142.51322937 197.64044189 142.51322937 197.64044189 142.20072937 200.14044189 C139.49348312 202.84768815 137.3688018 202.38659803 133.69143677 202.41149902 C132.7760463 202.40745056 131.86065582 202.4034021 130.91752625 202.39923096 C129.47350182 202.40448792 129.47350182 202.40448792 128.00030518 202.40985107 C124.806624 202.41867967 121.61316294 202.41281523 118.41947937 202.40606689 C116.20752418 202.40741322 113.99556928 202.40935348 111.78361511 202.41186523 C107.14316496 202.41481803 102.50279169 202.41051384 97.86235046 202.40118408 C91.90329112 202.3897895 85.94441192 202.39634814 79.98535919 202.40832901 C75.41643406 202.4155434 70.84755189 202.41326161 66.27862549 202.40807343 C64.08090189 202.40673576 61.88317443 202.4083887 59.68545532 202.41303253 C56.61817537 202.41809083 53.55119038 202.41039728 50.4839325 202.39923096 C49.56854202 202.40327942 48.65315155 202.40732788 47.71002197 202.41149902 C41.42925679 202.36896931 41.42925679 202.36896931 39.20072937 200.14044189 C39.45072937 197.07794189 39.45072937 197.07794189 40.20072937 194.14044189 C43.5106765 192.48546833 47.19195937 193.03959854 50.82572937 193.07794189 C52.02842468 193.08470947 52.02842468 193.08470947 53.25541687 193.09161377 C55.23721943 193.10341021 57.2189837 193.12134584 59.20072937 193.14044189 C59.57197937 191.25325439 59.57197937 191.25325439 59.95072937 189.32794189 C61.20072937 184.14044189 61.20072937 184.14044189 65.20072937 173.14044189 C55.63072937 172.81044189 46.06072937 172.48044189 36.20072937 172.14044189 C36.28322937 174.78044189 36.36572937 177.42044189 36.45072937 180.14044189 C36.50706538 186.61908327 36.52832424 191.97500073 32.20072937 197.14044189 C25.58268489 203.41432878 17.80514286 202.84211115 9.19291687 202.73419189 C7.73898925 202.73247791 6.28505854 202.73254939 4.83113098 202.73431396 C1.79663688 202.73266754 -1.23711233 202.71409262 -4.2714386 202.68243408 C-8.14955586 202.64268674 -12.026703 202.63840116 -15.90498543 202.64589691 C-18.90258074 202.64897393 -21.89996028 202.63682142 -24.8975029 202.61976624 C-26.32714865 202.612766 -27.75681884 202.60960807 -29.18648148 202.61045837 C-31.18654909 202.60864973 -33.18656017 202.58493526 -35.18647766 202.56036377 C-36.88902206 202.54773499 -36.88902206 202.54773499 -38.6259613 202.53485107 C-42.890609 202.00479994 -46.28678853 200.55233136 -49.44380188 197.60528564 C-52.68212883 193.3705504 -53.92123339 191.34086964 -53.9598999 186.056427 C-53.96994553 184.97981308 -53.97999115 183.90319916 -53.99034119 182.79396057 C-53.99617218 181.60747421 -54.00200317 180.42098785 -54.00801086 179.19854736 C-54.02268654 177.33006889 -54.02268654 177.33006889 -54.03765869 175.42384338 C-54.06766987 171.28511495 -54.08931777 167.14642113 -54.10786438 163.00762939 C-54.1111617 162.30313612 -54.11445902 161.59864285 -54.11785626 160.8728013 C-54.14864644 154.22593338 -54.17534984 147.57906092 -54.19227505 140.93214226 C-54.2141621 132.43648939 -54.25608384 123.94147014 -54.32571262 115.44607055 C-54.37302602 109.46973747 -54.3972186 103.49357485 -54.40447193 97.5170604 C-54.40941878 93.94954283 -54.42440399 90.38273906 -54.46421623 86.81542587 C-54.50811012 82.82966602 -54.50416932 78.84471328 -54.49629211 74.85870361 C-54.51629272 73.68436264 -54.53629333 72.51002167 -54.55690002 71.3000946 C-54.49881252 64.74694899 -53.71205532 60.71565322 -49.45347691 55.6374836 C-43.85978732 50.57524517 -36.9511924 50.73871382 -29.79927063 50.95294189 C-28.49409485 50.97324463 -28.49409485 50.97324463 -27.16255188 50.99395752 C-25.04118436 51.02892512 -22.92014089 51.0827166 -20.79927063 51.14044189 C-20.8202179 49.99043701 -20.84116516 48.84043213 -20.86274719 47.65557861 C-20.93536126 43.37299133 -20.98114792 39.09045807 -21.01899719 34.80743408 C-21.03906402 32.95675493 -21.06632408 31.10613881 -21.10102844 29.25567627 C-21.14976496 26.58950212 -21.1722885 23.92416903 -21.18989563 21.25762939 C-21.21054077 20.43551971 -21.23118591 19.61341003 -21.25245667 18.76638794 C-21.25484902 12.58718003 -19.58830861 9.01130984 -15.20161438 4.49591064 C-10.06544786 0.40067387 -6.36837487 -0.00732147 0 0 Z M-10.79927063 13.14044189 C-12.3857242 16.31334903 -11.92005276 19.72869574 -11.89692688 23.21075439 C-11.89551193 24.00698212 -11.89409698 24.80320984 -11.89263916 25.62356567 C-11.88703408 28.17089569 -11.87448077 30.71813836 -11.86177063 33.26544189 C-11.85675628 34.99070104 -11.85219326 36.71596157 -11.84809875 38.44122314 C-11.837063 42.67432981 -11.81979499 46.90737103 -11.79927063 51.14044189 C-10.84149719 51.15502441 -9.88372375 51.16960693 -8.89692688 51.18463135 C-5.31079052 51.24302553 -1.72525537 51.32025173 1.86039734 51.40289307 C3.4061958 51.43595051 4.95210941 51.46404092 6.49809265 51.48687744 C25.45662388 51.7744988 25.45662388 51.7744988 30.73564148 56.52032471 C45.37452745 72.77725986 36.19205199 126.60244402 36.20072937 127.14044189 C88.34072937 127.14044189 140.48072937 127.14044189 194.20072937 127.14044189 C194.24197937 109.44419189 194.28322937 91.74794189 194.32572937 73.51544189 C194.34393738 67.93170654 194.36214539 62.34797119 194.38090515 56.59503174 C194.3875948 51.58155946 194.3875948 51.58155946 194.39161682 46.56808472 C194.39468416 44.33834027 194.40171038 42.1085991 194.41188049 39.87887573 C194.42652891 36.49774426 194.42854104 33.11681521 194.42778015 29.73565674 C194.43857448 28.250365 194.43857448 28.250365 194.44958687 26.73506737 C194.49086729 18.13469752 194.49086729 18.13469752 190.11300087 11.01045036 C186.45952638 8.66450554 183.50854308 8.58134873 179.30607605 8.63250732 C178.1227712 8.62314738 178.1227712 8.62314738 176.9155612 8.61359835 C174.27528612 8.59765839 171.63593298 8.61027616 168.99565125 8.62286377 C167.1015672 8.61744309 165.20748736 8.61032073 163.31341553 8.60162354 C158.17087285 8.58338089 153.028651 8.59046166 147.88610268 8.60313988 C142.50590267 8.61326262 137.12573025 8.60387621 131.74552917 8.59759521 C122.71020065 8.59031671 113.67500289 8.59991189 104.63969421 8.61895752 C94.19167397 8.6407266 83.74396595 8.63367538 73.29595327 8.6116519 C64.32766849 8.59350374 55.35947773 8.59093673 46.39118052 8.60140657 C41.0338571 8.6076447 35.67668046 8.60846831 30.31936646 8.59526062 C25.28285535 8.58371129 20.24674703 8.5917112 15.21027946 8.61483765 C13.36116645 8.62012963 11.51201957 8.61860261 9.66292 8.60978699 C7.13994897 8.59886706 4.61827115 8.61255127 2.09538269 8.63250732 C1.36240448 8.62358444 0.62942626 8.61466155 -0.12576342 8.60546827 C-4.94936859 8.67955162 -7.41280914 9.71442159 -10.79927063 13.14044189 Z M-43.79927063 63.14044189 C-46.59465387 68.49768944 -46.08067925 74.49474588 -46.05805969 80.39068604 C-46.06156433 81.51494492 -46.06506897 82.6392038 -46.06867981 83.79753113 C-46.07746923 87.50694994 -46.07165808 91.21617745 -46.06489563 94.92559814 C-46.06624298 97.50579363 -46.0681841 100.08598886 -46.07069397 102.66618347 C-46.07364138 108.07047175 -46.06955078 113.47468831 -46.06001282 118.87896729 C-46.04912395 125.12063069 -46.05265949 131.36216347 -46.06366563 137.60382372 C-46.07384488 143.61809214 -46.07275535 149.6322968 -46.06690216 155.64657402 C-46.06556746 158.20186824 -46.06720709 160.7571658 -46.07186127 163.31245613 C-46.07693588 166.88159161 -46.06920303 170.45047555 -46.05805969 174.01959229 C-46.06210815 175.07687531 -46.06615662 176.13415833 -46.07032776 177.22348022 C-46.06468811 178.19772446 -46.05904846 179.17196869 -46.05323792 180.17573547 C-46.05248386 181.01875749 -46.05172981 181.8617795 -46.05095291 182.73034763 C-45.66422169 186.43366238 -44.66561693 189.25305666 -42.05439758 191.9276886 C-39.13187973 193.49934874 -37.03164984 193.52792072 -33.71723938 193.54449463 C-32.48916565 193.5571788 -31.26109192 193.56986298 -29.99580383 193.58293152 C-28.65945772 193.58088015 -27.32311276 193.57789218 -25.98677063 193.57403564 C-24.61201215 193.5785982 -23.23725594 193.583904 -21.86250305 193.58992004 C-18.98423483 193.59884625 -16.10624416 193.59643341 -13.22798157 193.58648682 C-9.54227212 193.57498996 -5.85751975 193.59522046 -2.17193604 193.62440395 C0.66600105 193.64276194 3.5037085 193.64247456 6.34169006 193.63676643 C7.70044804 193.63661321 9.05922156 193.64265888 10.41792297 193.65505791 C12.31812781 193.6699575 14.21849031 193.6566661 16.11869812 193.64215088 C17.19917419 193.64198471 18.27965027 193.64181854 19.39286804 193.64164734 C22.87010344 193.0209581 24.01853514 191.85609173 26.20072937 189.14044189 C27.42695113 186.68799838 27.33464025 185.08277389 27.34790039 182.33995056 C27.35505569 181.32631439 27.362211 180.31267822 27.36958313 179.26832581 C27.37227203 178.15193222 27.37496094 177.03553864 27.37773132 175.88531494 C27.38430252 174.71287231 27.39087372 173.54042969 27.39764404 172.3324585 C27.41741142 168.43903254 27.42904681 164.54562003 27.43901062 160.65216064 C27.44305808 159.31189262 27.447175 157.9716248 27.4513607 156.63135719 C27.47041321 150.33465061 27.48464401 144.03795576 27.49297267 137.7412259 C27.50274533 130.47276345 27.52906494 123.20460553 27.56947356 115.93625039 C27.5996346 110.31834139 27.61444152 104.70051967 27.61775368 99.08253127 C27.62010428 95.72710624 27.62906507 92.3720065 27.65421486 89.01666832 C27.67847613 85.27211434 27.67766466 81.52836041 27.67070007 77.78375244 C27.68351013 76.67343155 27.69632019 75.56311066 27.70951843 74.41914368 C27.68301307 68.41424662 27.68301307 68.41424662 25.3588562 62.97523499 C21.87050964 60.00951764 18.93826698 60.00867831 14.52348328 59.97930908 C13.35862396 59.96970154 12.19376465 59.96009399 10.99360657 59.95019531 C9.73422272 59.94594543 8.47483887 59.94169556 7.17729187 59.93731689 C5.88382843 59.93161682 4.59036499 59.92591675 3.25770569 59.92004395 C0.51898303 59.90954517 -2.21971037 59.90369514 -4.95845032 59.90020752 C-8.46117586 59.89472452 -11.96351235 59.87069648 -15.46611595 59.84223557 C-18.81413919 59.81908932 -22.16210903 59.81715839 -25.51020813 59.81231689 C-27.39321121 59.79379669 -27.39321121 59.79379669 -29.31425476 59.77490234 C-30.4854184 59.77790344 -31.65658203 59.78090454 -32.86323547 59.78399658 C-33.89121246 59.78035095 -34.91918945 59.77670532 -35.97831726 59.77294922 C-39.37655865 60.21564665 -41.1489133 60.96192345 -43.79927063 63.14044189 Z M36.20072937 136.14044189 C36.20072937 145.05044189 36.20072937 153.96044189 36.20072937 163.14044189 C55.80229371 163.23302217 75.40379634 163.30441228 95.00553417 163.34769058 C104.10688912 163.36831923 113.20810577 163.39644556 122.30937195 163.44219971 C130.24168579 163.48205826 138.17389947 163.50787251 146.10631067 163.51679587 C150.30683148 163.52201231 154.50706573 163.53427892 158.70749474 163.56336212 C162.66129421 163.59051585 166.61468914 163.59888707 170.568573 163.59287262 C172.01940929 163.59397289 173.47025914 163.60192737 174.92101479 163.61726379 C176.90288116 163.63718675 178.88496469 163.62999132 180.86691284 163.62145996 C181.9758298 163.62514713 183.08474676 163.6288343 184.22726727 163.63263321 C187.99863189 163.00836666 189.5761028 161.90141341 192.20072937 159.14044189 C195.09670804 151.50659844 195.09670804 151.50659844 194.20072937 136.14044189 C142.06072937 136.14044189 89.92072937 136.14044189 36.20072937 136.14044189 Z M75.20072937 172.14044189 C72.89072937 179.07044189 70.58072937 186.00044189 68.20072937 193.14044189 C83.05072937 193.14044189 97.90072937 193.14044189 113.20072937 193.14044189 C110.89072937 186.21044189 108.58072937 179.28044189 106.20072937 172.14044189 C95.97072937 172.14044189 85.74072937 172.14044189 75.20072937 172.14044189 Z " fill="#91C72F" transform="translate(53.79927062988281,26.85955810546875)"/>
<path d="M0 0 C3.41563376 2.47800881 5.21333747 4.60107444 7.1875 8.3125 C7.1875 9.3025 7.1875 10.2925 7.1875 11.3125 C7.77917969 11.39886719 8.37085938 11.48523437 8.98046875 11.57421875 C14.52818478 12.56068049 17.61224745 13.68570258 21.1875 18.3125 C24.33819986 23.66979305 25.5443487 29.22996145 26.88671875 35.23046875 C27.1266304 36.28349686 27.36654205 37.33652496 27.61372375 38.42146301 C28.11766269 40.64538735 28.61751109 42.87024205 29.11352539 45.09594727 C29.86925251 48.47430676 30.64572317 51.84743708 31.42382812 55.22070312 C31.9127322 57.39033834 32.4004022 59.56025208 32.88671875 61.73046875 C33.23351936 63.22479683 33.23351936 63.22479683 33.58732605 64.74931335 C35.21829487 72.19221519 37.14742832 81.0838221 33.6875 88.25 C29.81037703 92.99947563 25.94073576 95.00371123 19.92254639 95.67868042 C15.92936639 95.82501025 11.9557431 95.84291346 7.9609375 95.80859375 C6.4845879 95.80874898 5.00823789 95.81024187 3.53189087 95.81300354 C0.45043743 95.81438213 -2.63054749 95.80191823 -5.71191406 95.77905273 C-9.65053606 95.75061908 -13.58838358 95.75342598 -17.52706337 95.76614285 C-20.57095902 95.77311407 -23.61467727 95.76529522 -26.65855026 95.75288582 C-28.11053155 95.74838883 -29.56253199 95.74801912 -31.01451492 95.75195122 C-33.04567883 95.7548786 -35.07683861 95.73614224 -37.10791016 95.71655273 C-38.26070465 95.71114975 -39.41349915 95.70574677 -40.60122681 95.70018005 C-44.89000433 95.18241859 -48.28336783 93.73993217 -51.45703125 90.77734375 C-56.12950986 84.66717942 -56.2711829 80.9058318 -55.8125 73.3125 C-55.18352107 69.16765836 -54.26187775 65.11638828 -53.29296875 61.0390625 C-52.90411247 59.34890518 -52.90411247 59.34890518 -52.50740051 57.62460327 C-51.96086159 55.26189221 -51.40842414 52.90053846 -50.8503418 50.54052734 C-49.99828903 46.93025034 -49.16876036 43.31531568 -48.34179688 39.69921875 C-47.806012 37.39552488 -47.2689473 35.09212822 -46.73046875 32.7890625 C-46.48346725 31.71194 -46.23646576 30.6348175 -45.98197937 29.52505493 C-45.74195694 28.51985809 -45.50193451 27.51466125 -45.25463867 26.47900391 C-45.0481218 25.5995108 -44.84160492 24.7200177 -44.62882996 23.81387329 C-42.775322 18.1344109 -40.06434692 15.14041757 -34.8125 12.3125 C-30.9375 11.5625 -30.9375 11.5625 -27.8125 11.3125 C-27.72355469 10.56355469 -27.63460937 9.81460938 -27.54296875 9.04296875 C-26.28959705 4.35790555 -22.62802564 2.06109162 -18.8125 -0.6875 C-12.74242392 -3.78711332 -5.98881858 -3.07151854 0 0 Z M-16.8125 9.3125 C-17.1425 9.9725 -17.4725 10.6325 -17.8125 11.3125 C-12.8625 11.3125 -7.9125 11.3125 -2.8125 11.3125 C-5.32262439 7.16765149 -5.32262439 7.16765149 -8.6875 6.375 C-12.38832207 6.30098356 -13.91267533 7.0754924 -16.8125 9.3125 Z M-34.8125 24.3125 C-36.13461432 27.61952836 -36.13461432 27.61952836 -36.859375 31.43359375 C-37.01645935 32.13278427 -37.1735437 32.83197479 -37.33538818 33.55235291 C-37.66954575 35.04178654 -37.9961245 36.53293779 -38.31567383 38.02557373 C-38.97026129 41.03868647 -39.69217779 44.03392656 -40.41345215 47.03164673 C-41.13557422 50.04700866 -41.83438433 53.06756395 -42.53222656 56.08862305 C-42.88965489 57.62974472 -43.25040389 59.17009953 -43.61425781 60.7097168 C-44.15132734 62.98319984 -44.67828995 65.25882181 -45.203125 67.53515625 C-45.36556702 68.21441666 -45.52800903 68.89367706 -45.69537354 69.59352112 C-46.67748218 73.91901049 -47.37161093 77.89479669 -46.8125 82.3125 C-44.21725286 84.95371569 -42.52842443 86.18962075 -38.85314941 86.82043457 C-37.76014526 86.82361694 -36.66714111 86.82679932 -35.54101562 86.83007812 C-34.29622437 86.84268677 -33.05143311 86.85529541 -31.7689209 86.86828613 C-30.41885815 86.86112605 -29.06880058 86.85292199 -27.71875 86.84375 C-26.32539601 86.84644682 -24.93204386 86.85033083 -23.53869629 86.85534668 C-20.62343364 86.86123295 -17.7086624 86.85270779 -14.79345703 86.83398438 C-11.06411879 86.81119426 -7.33593207 86.82432217 -3.60663605 86.84827423 C-0.73088976 86.86275643 2.14458533 86.85811537 5.02033997 86.84776306 C6.39500567 86.84510241 7.76969633 86.84834225 9.14433289 86.85768127 C11.06822208 86.86788466 12.99219807 86.84956471 14.91601562 86.83007812 C16.00901978 86.82689575 17.10202393 86.82371338 18.22814941 86.82043457 C21.91068312 86.18837489 23.59517572 84.96921123 26.1875 82.3125 C27.03557453 75.73924503 25.35485931 69.5619686 23.8515625 63.171875 C23.61214935 62.12727112 23.37273621 61.08266724 23.12606812 60.00640869 C22.62075789 57.81027719 22.11121044 55.61511677 21.59765625 53.42089844 C20.8122909 50.06160559 20.04186141 46.69914152 19.2734375 43.3359375 C18.77952248 41.19771398 18.2847601 39.05968597 17.7890625 36.921875 C17.5587735 35.91767517 17.3284845 34.91347534 17.09121704 33.87884521 C16.87113983 32.94397278 16.65106262 32.00910034 16.42431641 31.04589844 C16.23334381 30.22619568 16.04237122 29.40649292 15.84561157 28.56195068 C14.96426618 25.54947823 14.12469476 23.04225072 11.60913086 21.08349609 C7.93114625 19.91250352 4.26413035 19.98697948 0.44140625 19.9765625 C-0.40672134 19.9699057 -1.25484894 19.9632489 -2.12867737 19.95639038 C-3.91982865 19.94627978 -5.71101748 19.94157287 -7.50219727 19.94189453 C-10.23712382 19.93752059 -12.97043687 19.90118376 -15.70507812 19.86328125 C-17.44791116 19.85741282 -19.19075185 19.8534436 -20.93359375 19.8515625 C-21.7483165 19.83719147 -22.56303925 19.82282043 -23.40245056 19.80801392 C-28.41020844 19.8481614 -31.37813758 20.30945149 -34.8125 24.3125 Z " fill="#91C72F" transform="translate(154.8125,48.6875)"/>
<path d="M0 0 C2.5 0.25 2.5 0.25 4.5 2.25 C5.31181669 4.52818714 5.96027707 6.83017529 6.62109375 9.15625 C7.41769717 11.59415648 7.41769717 11.59415648 10.5 13.25 C14.81880791 13.80984547 16.75753906 13.79447136 20.3125 11.1875 C22.85431667 7.77420332 23.61168941 5.36853093 24.5 1.25 C27.375 0.625 27.375 0.625 30.5 0.25 C32.5 2.25 32.5 2.25 32.9375 5.875 C32.80855874 10.94054936 30.64016293 14.39110768 27.5 18.25 C22.38191679 23.00250584 18.15711488 23.66568376 11.359375 23.59375 C6.86600622 23.05356359 3.82323198 21.25971953 0.5 18.25 C-3.66734041 12.90725588 -4.86865711 9.0087137 -4.5 2.25 C-2.5 0.25 -2.5 0.25 0 0 Z " fill="#91C72F" transform="translate(130.5,71.75)"/>
<path d="M0 0 C0.87709122 0.00091141 1.75418243 0.00182281 2.65785217 0.00276184 C3.5579451 -0.00152328 4.45803802 -0.00580841 5.38540649 -0.01022339 C7.29107318 -0.01597221 9.19676182 -0.0164629 11.10243225 -0.01213074 C14.02167652 -0.00897322 16.93990536 -0.03241424 19.85902405 -0.05778503 C21.70863214 -0.06005818 23.55824297 -0.06076145 25.40785217 -0.05973816 C26.28291916 -0.06894791 27.15798615 -0.07815765 28.05957031 -0.08764648 C28.87373917 -0.08141769 29.68790802 -0.0751889 30.52674866 -0.06877136 C31.24241501 -0.06940079 31.95808136 -0.07003021 32.69543457 -0.07067871 C35.17791337 0.41728539 36.09633845 1.29842532 37.59925842 3.30354309 C37.17820579 7.72459572 37.17820579 7.72459572 35.59925842 9.30354309 C32.52014183 9.41714602 29.46430376 9.46773414 26.38441467 9.47151184 C25.45833908 9.47484024 24.53226349 9.47816864 23.578125 9.4815979 C21.61520384 9.48667117 19.65227402 9.4890061 17.68934631 9.48884583 C14.67805332 9.49103126 11.66712709 9.50917983 8.65589905 9.52815247 C6.75290552 9.53108645 4.84991023 9.53307121 2.94691467 9.53401184 C1.58905602 9.54479012 1.58905602 9.54479012 0.20376587 9.55578613 C-0.63372696 9.5527095 -1.47121979 9.54963287 -2.33409119 9.54646301 C-3.44209328 9.54860054 -3.44209328 9.54860054 -4.57247925 9.55078125 C-6.40074158 9.30354309 -6.40074158 9.30354309 -8.40074158 7.30354309 C-8.65074158 4.80354309 -8.65074158 4.80354309 -8.40074158 2.30354309 C-5.71932249 -0.377876 -3.64618173 0.04285418 0 0 Z " fill="#91C72F" transform="translate(30.400741577148438,90.69645690917969)"/>
<path d="M0 0 C0.78246094 -0.01417969 1.56492187 -0.02835938 2.37109375 -0.04296875 C4.5625 0.1875 4.5625 0.1875 7.5625 2.1875 C7.8125 5.25 7.8125 5.25 7.5625 8.1875 C5.75503866 9.99496134 3.05804219 9.36053483 0.625 9.375 C-0.45652344 9.38917969 -1.53804687 9.40335938 -2.65234375 9.41796875 C-5.4375 9.1875 -5.4375 9.1875 -7.4375 7.1875 C-7.1875 4.125 -7.1875 4.125 -6.4375 1.1875 C-4.0978331 0.01766655 -2.60358473 0.0213759 0 0 Z " fill="#90C72F" transform="translate(44.4375,206.8125)"/>
</svg>
