<svg width="60" height="49" viewBox="0 0 60 49" fill="none" xmlns="http://www.w3.org/2000/svg">
<path fill-rule="evenodd" clip-rule="evenodd" d="M23.9085 0H32.4665C37.521 0 41.525 3.27826e-07 44.6572 0.42075C47.8803 0.85525 50.49 1.76825 52.5497 3.82525C55.0907 6.369 55.902 9.7735 56.1962 14.1928C57.783 14.8885 58.982 16.3652 59.1113 18.2352C59.125 18.403 59.125 18.5818 59.125 18.7468V29.3782C59.125 29.5432 59.125 29.722 59.114 29.887C58.982 31.757 57.783 33.2365 56.1962 33.935C55.902 38.3515 55.0907 41.756 52.5497 44.2997C50.49 46.3567 47.8803 47.2697 44.6572 47.7043C41.5223 48.125 37.521 48.125 32.4665 48.125H23.9085C18.854 48.125 14.85 48.125 11.7178 47.7043C8.49475 47.2697 5.885 46.3567 3.82525 44.2997C1.76825 42.24 0.85525 39.6303 0.42075 36.4072C0 33.2723 0 29.271 0 24.2165V23.9085C0 18.854 0 14.85 0.42075 11.7178C0.85525 8.49475 1.76825 5.885 3.82525 3.82525C5.885 1.76825 8.49475 0.85525 11.7178 0.42075C14.8528 3.27826e-07 18.854 0 23.9085 0ZM52.0245 34.375H46.695C40.7962 34.375 35.7472 29.898 35.7472 24.0625C35.7472 18.227 40.7962 13.75 46.6922 13.75H52.0218C51.7082 10.0623 51.0015 8.1125 49.6293 6.743C48.466 5.57975 46.871 4.88125 44.1045 4.51C41.2803 4.1305 37.554 4.125 32.3097 4.125H24.0597C18.8155 4.125 15.092 4.1305 12.2622 4.51C9.4985 4.88125 7.9035 5.57975 6.74025 6.743C5.577 7.90625 4.8785 9.50125 4.50725 12.2677C4.12775 15.0947 4.12225 18.8183 4.12225 24.0625C4.12225 29.3067 4.12775 33.033 4.50725 35.86C4.8785 38.6238 5.577 40.2188 6.74025 41.382C7.9035 42.5452 9.4985 43.2438 12.265 43.615C15.092 43.9945 18.8155 44 24.0597 44H32.3097C37.554 44 41.2803 43.9945 44.1073 43.615C46.871 43.2438 48.466 42.5452 49.6293 41.382C51.0015 40.0125 51.711 38.0655 52.0245 34.375ZM11 13.0625C11 12.5155 11.2173 11.9909 11.6041 11.6041C11.9909 11.2173 12.5155 11 13.0625 11H24.0625C24.6095 11 25.1341 11.2173 25.5209 11.6041C25.9077 11.9909 26.125 12.5155 26.125 13.0625C26.125 13.6095 25.9077 14.1341 25.5209 14.5209C25.1341 14.9077 24.6095 15.125 24.0625 15.125H13.0625C12.5155 15.125 11.9909 14.9077 11.6041 14.5209C11.2173 14.1341 11 13.6095 11 13.0625ZM54.1035 17.875H46.695C42.779 17.875 39.8722 20.7873 39.8722 24.0625C39.8722 27.3377 42.779 30.25 46.6922 30.25H54.1668C54.7332 30.2143 54.978 29.832 54.9973 29.601V18.524C54.978 18.293 54.7332 17.9108 54.1668 17.8778L54.1035 17.875Z" fill="#3FABDD"/>
</svg>
