<svg width="61" height="52" viewBox="0 0 61 52" fill="none" xmlns="http://www.w3.org/2000/svg">
<path d="M48.1756 0H14.5684C12.6791 0 11.1522 -6.29588e-07 9.92174 0.0942515C8.64939 0.191754 7.53392 0.396508 6.5021 0.884019C4.86149 1.66314 3.5277 2.90671 2.69205 4.43635C2.45153 4.87836 2.34347 5.46337 2.27375 5.89888C2.19009 6.41239 2.12386 7.03641 2.06808 7.72217C1.96002 9.1002 1.88682 10.8195 1.83802 12.5908C1.7439 16.1334 1.7439 19.9522 1.7439 21.7722C1.7439 22.2032 1.92753 22.6198 2.25439 22.9246C2.58125 23.2293 3.02457 23.4005 3.48683 23.4005C3.94908 23.4005 4.3924 23.2293 4.71927 22.9246C5.04613 22.6198 5.22976 22.2065 5.22976 21.7755C5.22976 20.573 5.22976 18.5157 5.25765 16.2504H57.5142V33.4757C57.5142 35.3218 57.5143 36.6121 57.4236 37.6131C57.34 38.5946 57.1796 39.1601 56.946 39.5891C56.4446 40.5073 55.6441 41.2536 54.6593 41.7212C54.1992 41.9389 53.5926 42.0884 52.5399 42.1664C51.4663 42.2509 50.0824 42.2509 48.1024 42.2509H31.3703C30.908 42.2509 30.4647 42.4221 30.1378 42.7269C29.811 43.0317 29.6273 43.445 29.6273 43.876C29.6273 44.307 29.811 44.7203 30.1378 45.0251C30.4647 45.3298 30.908 45.501 31.3703 45.501H48.1756C50.065 45.501 51.5918 45.501 52.8223 45.4068C54.0946 45.3093 55.2101 45.1045 56.2419 44.6137C57.8807 43.8349 59.2131 42.5926 60.0485 41.0647C60.5748 40.1026 60.7944 39.0626 60.899 37.8796C61.0001 36.7258 61.0001 35.3055 61.0001 33.544V11.9603C61.0001 10.1987 61.0001 8.7752 60.899 7.62792C60.7944 6.44164 60.5748 5.40162 60.0485 4.4396C59.2137 2.91046 57.8812 1.66695 56.2419 0.887269C55.2101 0.399758 54.0946 0.195005 52.8258 0.0975028C51.5883 6.84072e-07 50.065 0 48.1756 0ZM57.5003 9.75022H5.42846C5.46099 9.1002 5.49934 8.50436 5.54349 7.96268C5.59229 7.30833 5.65039 6.77965 5.71778 6.37664C5.75961 6.11339 5.79447 5.97038 5.80841 5.91188L5.81539 5.87938C6.31726 4.97629 7.10951 4.24217 8.0812 3.77983C8.54133 3.56208 9.14787 3.41258 10.2006 3.33457C11.2777 3.25007 12.6581 3.25007 14.6381 3.25007H48.1024C50.0824 3.25007 51.4663 3.25007 52.5399 3.33457C53.5926 3.41258 54.1992 3.56208 54.6593 3.77983C55.6441 4.24737 56.4446 4.99376 56.946 5.91188C57.1796 6.34089 57.34 6.9064 57.4236 7.88793C57.4724 8.41769 57.4898 9.02545 57.5003 9.75022Z" fill="#91C730"/>
<path d="M22.0072 35.351L19.4973 37.6261C21.0729 40.3984 20.5779 43.8825 18.0019 46.2095L14.0001 49.8301C12.437 51.2227 10.3582 51.9999 8.19616 51.9999C6.03411 51.9999 3.9553 51.2227 2.39219 49.8301C1.63609 49.1564 1.03429 48.3469 0.623137 47.4503C0.21198 46.5538 0 45.5888 0 44.6137C0 43.6386 0.21198 42.6737 0.623137 41.7771C1.03429 40.8806 1.63609 40.071 2.39219 39.3974L4.90201 37.1288C4.11497 35.7411 3.83482 34.1519 4.10407 32.6023C4.37331 31.0527 5.17726 29.6272 6.39396 28.5421L10.3957 24.9215C11.9588 23.5289 14.0377 22.7517 16.1997 22.7517C18.3617 22.7517 20.4406 23.5289 22.0037 24.9215C22.7598 25.5952 23.3616 26.4047 23.7727 27.3013C24.1839 28.1979 24.3959 29.1628 24.3959 30.1379C24.3959 31.113 24.1839 32.0779 23.7727 32.9745C23.3616 33.8711 22.7598 34.6806 22.0037 35.3543M19.7344 33.3717C20.2017 32.954 20.5736 32.4525 20.8276 31.8973C21.0816 31.3421 21.2126 30.7447 21.2126 30.1411C21.2126 29.5376 21.0816 28.9402 20.8276 28.385C20.5736 27.8298 20.2017 27.3283 19.7344 26.9106C18.7834 26.0595 17.5162 25.5842 16.198 25.5842C14.8797 25.5842 13.6126 26.0595 12.6615 26.9106L8.65629 30.5312C8.02279 31.0991 7.56829 31.8181 7.34214 32.6099C7.11599 33.4018 7.12683 34.2363 7.37349 35.0228C8.87647 34.0485 10.6786 33.5565 12.5078 33.621C14.337 33.6855 16.0941 34.303 17.5139 35.3803L19.7344 33.3717ZM15.2446 37.3758C14.3627 36.7678 13.2948 36.4397 12.1979 36.4397C11.1011 36.4397 10.0332 36.7678 9.15128 37.3758C10.0332 37.9838 11.1011 38.312 12.1979 38.312C13.2948 38.312 14.3627 37.9838 15.2446 37.3758ZM4.658 41.3831C4.19068 41.8009 3.81882 42.3024 3.56478 42.8576C3.31074 43.4128 3.17978 44.0101 3.17978 44.6137C3.17978 45.2173 3.31074 45.8147 3.56478 46.3699C3.81882 46.925 4.19068 47.4266 4.658 47.8443C5.60901 48.6954 6.87618 49.1707 8.19441 49.1707C9.51265 49.1707 10.7798 48.6954 11.7308 47.8443L15.7361 44.2237C17.0781 43.0114 17.5069 41.2791 17.0189 39.7321C15.5159 40.7064 13.7138 41.1984 11.8846 41.1339C10.0554 41.0694 8.29827 40.4519 6.8785 39.3746L4.658 41.3831ZM38.3419 29.2506C37.4174 29.2506 36.5308 29.593 35.877 30.2026C35.2233 30.8121 34.856 31.6387 34.856 32.5007C34.856 33.3627 35.2233 34.1893 35.877 34.7988C36.5308 35.4084 37.4174 35.7508 38.3419 35.7508H48.7995C49.724 35.7508 50.6107 35.4084 51.2644 34.7988C51.9181 34.1893 52.2854 33.3627 52.2854 32.5007C52.2854 31.6387 51.9181 30.8121 51.2644 30.2026C50.6107 29.593 49.724 29.2506 48.7995 29.2506H38.3419Z" fill="#91C730"/>
</svg>
