<svg width="50" height="50" viewBox="0 0 50 50" fill="none" xmlns="http://www.w3.org/2000/svg">
<path d="M6.1875 0C4.54647 0 2.97266 0.651896 1.81228 1.81228C0.651896 2.97266 0 4.54647 0 6.1875V11.1086C0 13.2536 1.11375 15.2419 2.93287 16.368L18.8801 26.2267C16.4545 27.5337 14.5344 29.6127 13.4242 32.1345C12.3139 34.6562 12.077 37.4763 12.7509 40.1479C13.4248 42.8195 14.9711 45.1898 17.1446 46.8831C19.3182 48.5765 21.9947 49.496 24.75 49.496C27.5053 49.496 30.1818 48.5765 32.3554 46.8831C34.5289 45.1898 36.0752 42.8195 36.7491 40.1479C37.423 37.4763 37.1861 34.6562 36.0758 32.1345C34.9656 29.6127 33.0455 27.5337 30.6199 26.2267L46.5671 16.368C47.4634 15.8137 48.2033 15.0396 48.7165 14.1192C49.2298 13.1988 49.4995 12.1625 49.5 11.1086V6.1875C49.5 4.54647 48.8481 2.97266 47.6877 1.81228C46.5273 0.651896 44.9535 0 43.3125 0H6.1875ZM4.125 6.1875C4.125 5.64049 4.3423 5.11589 4.72909 4.72909C5.11589 4.3423 5.64049 4.125 6.1875 4.125H12.375V17.358L5.10262 12.8617C4.80386 12.677 4.55724 12.4189 4.38615 12.1121C4.21506 11.8053 4.12517 11.4599 4.125 11.1086V6.1875ZM16.5 19.9073V4.125H33V19.9073L25.8349 24.3375C25.5089 24.5391 25.1333 24.6459 24.75 24.6459C24.3667 24.6459 23.9911 24.5391 23.6651 24.3375L16.5 19.9073ZM37.125 17.358V4.125H43.3125C43.8595 4.125 44.3841 4.3423 44.7709 4.72909C45.1577 5.11589 45.375 5.64049 45.375 6.1875V11.1086C45.3748 11.4599 45.2849 11.8053 45.1138 12.1121C44.9428 12.4189 44.6961 12.677 44.3974 12.8617L37.125 17.358ZM16.5 37.125C16.5 34.937 17.3692 32.8385 18.9164 31.2914C20.4635 29.7442 22.562 28.875 24.75 28.875C26.938 28.875 29.0365 29.7442 30.5836 31.2914C32.1308 32.8385 33 34.937 33 37.125C33 39.313 32.1308 41.4115 30.5836 42.9586C29.0365 44.5058 26.938 45.375 24.75 45.375C22.562 45.375 20.4635 44.5058 18.9164 42.9586C17.3692 41.4115 16.5 39.313 16.5 37.125Z" fill="#91C730"/>
</svg>
