<svg width="64" height="50" viewBox="0 0 64 50" fill="none" xmlns="http://www.w3.org/2000/svg">
<path d="M49.5 21.6562C49.5 22.2681 49.3186 22.8663 48.9786 23.375C48.6387 23.8838 48.1555 24.2803 47.5902 24.5145C47.0249 24.7487 46.4028 24.8099 45.8027 24.6906C45.2026 24.5712 44.6513 24.2765 44.2186 23.8439C43.786 23.4112 43.4913 22.8599 43.3719 22.2598C43.2526 21.6597 43.3138 21.0376 43.548 20.4723C43.7822 19.907 44.1787 19.4238 44.6875 19.0839C45.1962 18.7439 45.7944 18.5625 46.4062 18.5625C47.2268 18.5625 48.0137 18.8884 48.5939 19.4686C49.174 20.0488 49.5 20.8357 49.5 21.6562ZM39.1875 8.25H28.875C28.328 8.25 27.8034 8.4673 27.4166 8.85409C27.0298 9.24089 26.8125 9.76549 26.8125 10.3125C26.8125 10.8595 27.0298 11.3841 27.4166 11.7709C27.8034 12.1577 28.328 12.375 28.875 12.375H39.1875C39.7345 12.375 40.2591 12.1577 40.6459 11.7709C41.0327 11.3841 41.25 10.8595 41.25 10.3125C41.25 9.76549 41.0327 9.24089 40.6459 8.85409C40.2591 8.4673 39.7345 8.25 39.1875 8.25ZM63.9375 20.625V28.875C63.9375 30.516 63.2856 32.0898 62.1252 33.2502C60.9648 34.4106 59.391 35.0625 57.75 35.0625H57.1416L52.9624 46.762C52.6763 47.5634 52.1493 48.2567 51.4538 48.7469C50.7582 49.237 49.9281 49.5001 49.0772 49.5H45.7978C44.9469 49.5001 44.1168 49.237 43.4212 48.7469C42.7257 48.2567 42.1987 47.5634 41.9126 46.762L41.4176 45.375H26.6449L26.1499 46.762C25.8638 47.5634 25.3368 48.2567 24.6413 48.7469C23.9457 49.237 23.1156 49.5001 22.2647 49.5H18.9853C18.1344 49.5001 17.3043 49.237 16.6087 48.7469C15.9132 48.2567 15.3862 47.5634 15.1001 46.762L11.8594 37.6973C8.7764 34.2081 6.84598 29.852 6.33187 25.2244C5.66626 25.574 5.10886 26.0989 4.7199 26.7423C4.33094 27.3857 4.12523 28.1232 4.125 28.875C4.125 29.422 3.9077 29.9466 3.52091 30.3334C3.13411 30.7202 2.60951 30.9375 2.0625 30.9375C1.51549 30.9375 0.990886 30.7202 0.604092 30.3334C0.217299 29.9466 0 29.422 0 28.875C0.00315144 27.0357 0.62087 25.2502 1.75502 23.8021C2.88916 22.3541 4.47469 21.3265 6.25969 20.8828C6.72044 15.1989 9.30193 9.89611 13.4915 6.02746C17.6811 2.15881 23.1724 0.00724085 28.875 0H55.6875C56.2345 0 56.7591 0.217299 57.1459 0.604093C57.5327 0.990886 57.75 1.51549 57.75 2.0625C57.75 2.60951 57.5327 3.13411 57.1459 3.52091C56.7591 3.9077 56.2345 4.125 55.6875 4.125H50.1729C53.5957 6.52651 56.2877 9.8279 57.9511 13.6641C58.062 13.9219 58.1702 14.1797 58.2734 14.4375C59.8221 14.569 61.2645 15.2784 62.314 16.4249C63.3635 17.5713 63.9431 19.0707 63.9375 20.625ZM59.8125 20.625C59.8125 20.078 59.5952 19.5534 59.2084 19.1666C58.8216 18.7798 58.297 18.5625 57.75 18.5625H56.8064C56.3671 18.563 55.9392 18.4232 55.5849 18.1635C55.2306 17.9038 54.9685 17.5378 54.8367 17.1187C53.655 13.3478 51.2992 10.0532 48.1129 7.71568C44.9267 5.37815 41.0767 4.12007 37.125 4.125H28.875C25.2726 4.12481 21.748 5.17283 18.731 7.14126C15.714 9.10968 13.3349 11.9135 11.8839 15.2107C10.4329 18.5079 9.97268 22.1561 10.5593 25.7104C11.146 29.2646 12.7541 32.5714 15.1877 35.2275C15.3738 35.4299 15.5176 35.6674 15.6105 35.9262L18.9853 45.375H22.2647L23.2495 42.619C23.3925 42.2185 23.6558 41.872 24.0033 41.6269C24.3508 41.3819 24.7656 41.2502 25.1909 41.25H42.8716C43.2969 41.2502 43.7117 41.3819 44.0592 41.6269C44.4067 41.872 44.67 42.2185 44.813 42.619L45.7978 45.375H49.0772L53.7462 32.3065C53.8892 31.906 54.1524 31.5595 54.5 31.3144C54.8475 31.0694 55.2623 30.9377 55.6875 30.9375H57.75C58.297 30.9375 58.8216 30.7202 59.2084 30.3334C59.5952 29.9466 59.8125 29.422 59.8125 28.875V20.625Z" fill="#91C730"/>
</svg>
