<svg width="55" height="39" viewBox="0 0 55 39" fill="none" xmlns="http://www.w3.org/2000/svg">
<path d="M43.995 13.7613C43.995 13.0319 43.7053 12.3324 43.1896 11.8167C42.6738 11.301 41.9744 11.0113 41.245 11.0113H9.37251L15.6975 4.71375C16.2153 4.19592 16.5063 3.49358 16.5063 2.76125C16.5063 2.02892 16.2153 1.32659 15.6975 0.808752C15.1797 0.290917 14.4773 5.45628e-09 13.745 0C13.0127 -5.45628e-09 12.3103 0.290917 11.7925 0.808752L0.792513 11.8088C0.410929 12.1955 0.152439 12.6865 0.0496605 13.22C-0.0531184 13.7535 0.00441897 14.3054 0.215012 14.8063C0.421318 15.3085 0.771662 15.7384 1.22189 16.0418C1.67212 16.3452 2.20209 16.5085 2.74501 16.5113H41.245C41.9744 16.5113 42.6738 16.2215 43.1896 15.7058C43.7053 15.1901 43.995 14.4906 43.995 13.7613ZM54.775 23.7163C54.5687 23.2141 54.2184 22.7842 53.7681 22.4807C53.3179 22.1773 52.7879 22.014 52.245 22.0113H13.745C13.0157 22.0113 12.3162 22.301 11.8005 22.8167C11.2847 23.3324 10.995 24.0319 10.995 24.7613C10.995 25.4906 11.2847 26.1901 11.8005 26.7058C12.3162 27.2215 13.0157 27.5113 13.745 27.5113H45.6175L39.2925 33.8088C39.0348 34.0644 38.8302 34.3686 38.6906 34.7037C38.5509 35.0388 38.4791 35.3982 38.4791 35.7612C38.4791 36.1243 38.5509 36.4837 38.6906 36.8188C38.8302 37.1539 39.0348 37.4581 39.2925 37.7137C39.5482 37.9715 39.8523 38.1761 40.1874 38.3157C40.5225 38.4553 40.882 38.5272 41.245 38.5272C41.608 38.5272 41.9675 38.4553 42.3026 38.3157C42.6377 38.1761 42.9419 37.9715 43.1975 37.7137L54.1975 26.7138C54.5791 26.327 54.8376 25.836 54.9404 25.3025C55.0431 24.769 54.9856 24.2171 54.775 23.7163Z" fill="#3FABDD"/>
</svg>
