<svg width="49" height="57" viewBox="0 0 49 57" fill="none" xmlns="http://www.w3.org/2000/svg">
<path d="M49 8.62889L24.5 0L0 8.62889V28.5C0 38.6747 6.2083 45.7874 11.9952 50.2029C15.4891 52.8419 19.3212 54.994 23.3877 56.6006C23.6654 56.7058 23.9447 56.8061 24.2256 56.9014L24.5 57L24.7793 56.9014C25.315 56.7141 25.846 56.5136 26.3718 56.2998C30.1589 54.7298 33.7319 52.681 37.0048 50.2029C42.7942 45.7874 49 38.6747 49 28.5V8.62889ZM22.0525 36.9193L11.662 26.4587L15.1263 22.9701L22.0549 29.9447L35.9146 15.998L39.3813 19.484L22.0525 36.9193Z" fill="#91C730"/>
</svg>
