<?xml version="1.0" encoding="UTF-8"?>
<svg version="1.1" xmlns="http://www.w3.org/2000/svg" width="256" height="256">
<path d="M0 0 C0.70198013 0.28645889 1.40396027 0.57291779 2.12721252 0.86805725 C4.44542179 1.81801554 6.75577158 2.78568532 9.06640625 3.75390625 C10.71253784 4.43314728 12.35902988 5.11151532 14.00585938 5.7890625 C27.58476054 11.39379152 41.09481857 17.16453862 54.6003418 22.94335938 C68.05069848 28.69076079 81.58181107 34.22462766 95.15625 39.671875 C95.90022034 39.97090225 96.64419067 40.2699295 97.41070557 40.57801819 C98.79166344 41.13262856 100.17325196 41.68567246 101.55560303 42.23680115 C104.02701267 43.22853619 106.44287885 44.21654466 108.79101562 45.47705078 C111.00367396 46.48756079 112.68712282 46.58595896 115.11328125 46.625 C116.39332031 46.66270508 116.39332031 46.66270508 117.69921875 46.70117188 C119.46998494 46.73601931 121.24082458 46.76733376 123.01171875 46.79492188 C130.77789122 47.03397073 138.05748702 48.44382922 143.62890625 54.31640625 C149.44225428 62.5733127 149.23465122 70.80526604 148.94140625 80.44140625 C148.91626948 81.88928402 148.89346587 83.33720426 148.87304688 84.78515625 C148.81852814 88.29647051 148.73256158 91.8061582 148.62890625 95.31640625 C149.57121094 95.60644531 150.51351562 95.89648438 151.484375 96.1953125 C154.8758775 97.40445687 156.3708916 98.55661057 158.62890625 101.31640625 C159.66766831 104.43269243 159.76790532 106.63229702 159.79003906 109.90185547 C159.79964661 111.04669403 159.80925415 112.19153259 159.81915283 113.37106323 C159.82552765 115.22732834 159.82552765 115.22732834 159.83203125 117.12109375 C159.83773132 118.39236115 159.8434314 119.66362854 159.8493042 120.97341919 C159.85875759 123.66509583 159.86565281 126.35666088 159.86914062 129.04833984 C159.87462344 132.49053424 159.89865124 135.9323327 159.92711258 139.374403 C159.95026088 142.66493648 159.95218995 145.95549024 159.95703125 149.24609375 C159.96937805 150.47955536 159.98172485 151.71301697 159.9944458 152.9838562 C159.9914447 154.13499908 159.9884436 155.28614197 159.98535156 156.47216797 C159.99082001 157.98748611 159.99082001 157.98748611 159.99639893 159.53341675 C159.41271672 163.95359043 157.10319634 167.53697418 153.62890625 170.31640625 C152.30393792 170.68157443 150.97067656 171.01884733 149.62890625 171.31640625 C149.6148877 172.6621875 149.6148877 172.6621875 149.60058594 174.03515625 C149.55629374 177.39788964 149.49455963 180.75939972 149.42138672 184.12158203 C149.39334589 185.57035841 149.37204814 187.01928297 149.35791016 188.46826172 C149.25730651 198.19998774 148.81686453 205.35698197 142.25390625 213.12890625 C135.89850423 218.4250746 130.12885298 219.46566049 122.11593628 219.46357727 C121.35594995 219.46725396 120.59596361 219.47093065 119.81294739 219.47471875 C117.26445156 219.48573821 114.71599654 219.48959649 112.16748047 219.4934082 C110.34077322 219.49967423 108.51406725 219.50632115 106.68736267 219.51332092 C100.68611537 219.53434928 94.68486785 219.54472297 88.68359375 219.5546875 C86.61597811 219.55873568 84.54836259 219.56285262 82.48074722 219.56703758 C72.76524377 219.58608748 63.04974789 219.60031828 53.33422935 219.60864955 C42.12831982 219.61841805 30.92260802 219.64472838 19.71676815 219.68515044 C11.04993457 219.71533814 2.38315759 219.730121 -6.28372753 219.73343056 C-11.45737984 219.73577824 -16.63082086 219.74470187 -21.80441666 219.76989174 C-26.67508734 219.79322349 -31.54540838 219.79738516 -36.41612053 219.78713036 C-38.19864886 219.78663611 -39.9811947 219.79292366 -41.76366997 219.8066864 C-61.40974707 219.94982475 -61.40974707 219.94982475 -69.80859375 213.421875 C-70.32421875 212.78894531 -70.83984375 212.15601563 -71.37109375 211.50390625 C-71.90734375 210.87871094 -72.44359375 210.25351563 -72.99609375 209.609375 C-77.15758735 202.66961153 -76.66174481 195.19298048 -76.64575195 187.34790039 C-76.65086288 186.05275009 -76.65597382 184.75759979 -76.66123962 183.42320251 C-76.67457827 179.88597364 -76.6752141 176.34885194 -76.67267632 172.81160283 C-76.67160321 169.85197105 -76.67649862 166.89236065 -76.68128175 163.93273348 C-76.69235897 156.94740811 -76.69282428 149.96213653 -76.68676758 142.97680664 C-76.68072735 135.78482404 -76.69304405 128.59303706 -76.71433765 121.40108782 C-76.73198327 115.2123252 -76.73795039 109.02362469 -76.7346999 102.83483785 C-76.73289176 99.14468558 -76.7354762 95.45467289 -76.74941444 91.76454353 C-76.76438423 87.64766971 -76.75499687 83.53119138 -76.7434082 79.41430664 C-76.75105194 78.2010672 -76.75869568 76.98782776 -76.76657104 75.73782349 C-76.71087498 66.77811314 -75.46641927 59.5846164 -69.13671875 52.85546875 C-63.4058639 47.85998908 -57.38921727 47.06210389 -50.05078125 46.71484375 C-49.31077881 46.67447998 -48.57077637 46.63411621 -47.80834961 46.5925293 C-45.99624296 46.49453806 -44.18370119 46.40465056 -42.37109375 46.31640625 C-41.91259033 45.1361084 -41.45408691 43.95581055 -40.98168945 42.73974609 C-39.26928739 38.34063788 -37.54180066 33.94758276 -35.80981445 29.55615234 C-35.063855 27.65866954 -34.32193584 25.759593 -33.58422852 23.85888672 C-32.52000282 21.11902583 -31.44113274 18.38532236 -30.359375 15.65234375 C-30.03520096 14.80836029 -29.71102692 13.96437683 -29.37702942 13.09481812 C-26.82392693 6.70814431 -24.20300954 1.8896928 -17.99609375 -1.55859375 C-11.35078975 -3.62092947 -6.27357077 -2.66137708 0 0 Z M-15.49511719 11.87402344 C-17.37666365 15.32662691 -18.93511878 18.7407716 -20.38671875 22.39453125 C-20.6474115 23.04717957 -20.90810425 23.69982788 -21.17669678 24.37225342 C-21.7210177 25.7390528 -22.26201755 27.10717913 -22.79980469 28.4765625 C-23.62545014 30.57749147 -24.46225828 32.67371305 -25.30078125 34.76953125 C-28.13041411 40.87679326 -28.13041411 40.87679326 -29.37109375 47.31640625 C-25.74109375 47.31640625 -22.11109375 47.31640625 -18.37109375 47.31640625 C-17.88898438 46.04023437 -17.406875 44.7640625 -16.91015625 43.44921875 C-16.27241628 41.77984059 -15.63438005 40.11057559 -14.99609375 38.44140625 C-14.67898437 37.59964844 -14.361875 36.75789063 -14.03515625 35.890625 C-13.72578125 35.08496094 -13.41640625 34.27929688 -13.09765625 33.44921875 C-12.81486816 32.70559082 -12.53208008 31.96196289 -12.24072266 31.19580078 C-11.37109375 29.31640625 -11.37109375 29.31640625 -9.37109375 27.31640625 C-1.65964606 27.53548704 4.97202951 29.95242483 12.16796875 32.5703125 C14.6309597 33.43451386 17.09452122 34.29709047 19.55859375 35.15820312 C23.39106678 36.50458679 27.21862966 37.86266447 31.03515625 39.25366211 C47.59936927 45.25064053 61.94399892 48.92631708 79.62890625 47.31640625 C75.77480887 43.9287744 71.20687174 42.32603877 66.51171875 40.4296875 C65.59840286 40.05509399 64.68508698 39.68050049 63.74409485 39.29455566 C60.74950491 38.0673673 57.75178374 36.84803893 54.75390625 35.62890625 C50.5795963 33.92333497 46.40683388 32.21400025 42.234375 30.50390625 C41.18034988 30.07245804 40.12632477 29.64100983 39.0403595 29.19648743 C32.10543506 26.35173541 25.19652319 23.45140732 18.3046875 20.50390625 C16.98945099 19.94282417 16.98945099 19.94282417 15.64764404 19.3704071 C12.30340211 17.94314381 8.95938333 16.51570685 5.62286377 15.07046509 C3.3559576 14.08875678 1.08474814 13.11770211 -1.1875 12.1484375 C-1.84691086 11.85876099 -2.50632172 11.56908447 -3.18571472 11.27062988 C-9.94813563 8.19513681 -9.94813563 8.19513681 -15.49511719 11.87402344 Z M-3.37109375 39.31640625 C-4.62774353 42.22240886 -5.37109375 44.11245209 -5.37109375 47.31640625 C2.87890625 47.31640625 11.12890625 47.31640625 19.62890625 47.31640625 C17.07970443 45.61693837 15.30791061 44.75109294 12.46875 43.80859375 C11.67533203 43.54433594 10.88191406 43.28007813 10.06445312 43.0078125 C9.24009766 42.73839844 8.41574219 42.46898437 7.56640625 42.19140625 C6.32407227 41.77568359 6.32407227 41.77568359 5.05664062 41.3515625 C0.92647438 39.86549057 0.92647438 39.86549057 -3.37109375 39.31640625 Z M-63.37109375 64.31640625 C-64.65538992 66.88499858 -64.50860954 68.72651811 -64.5249939 71.60369873 C-64.53359436 72.72527374 -64.54219482 73.84684875 -64.55105591 75.00241089 C-64.55531586 76.23879303 -64.55957581 77.47517517 -64.56396484 78.74902344 C-64.57214233 80.04665619 -64.58031982 81.34428894 -64.58874512 82.6812439 C-64.61497153 86.99190186 -64.63027455 91.30256957 -64.64453125 95.61328125 C-64.6498909 97.0971604 -64.65526841 98.58103949 -64.6606636 100.06491852 C-64.68229431 106.23796624 -64.70103055 112.41101134 -64.712286 118.58408737 C-64.7285217 127.43048646 -64.76168748 136.27644607 -64.81868684 145.12267947 C-64.85739766 151.3427197 -64.87692007 157.56264244 -64.88220656 163.78279996 C-64.88585888 167.4977006 -64.89786602 171.21213258 -64.9303093 174.92690277 C-64.96600512 179.07360421 -64.96201625 183.2193625 -64.95458984 187.36621094 C-64.97099518 188.59449615 -64.98740051 189.82278137 -65.00430298 191.08828735 C-65.07066994 198.06086841 -65.07066994 198.06086841 -61.95962524 204.06329346 C-57.95167516 207.55189834 -55.18306431 207.46676139 -50.07171631 207.4703064 C-49.31061656 207.47468865 -48.54951682 207.4790709 -47.76535344 207.48358595 C-45.20131391 207.4969978 -42.63730877 207.50315815 -40.07324219 207.50927734 C-38.2403396 207.51717644 -36.40743856 207.52544527 -34.57453918 207.53405762 C-28.54319753 207.56030019 -22.51184885 207.57558755 -16.48046875 207.58984375 C-14.40595749 207.59520252 -12.33144628 207.60058003 -10.25693512 207.6059761 C-1.62875852 207.62760817 6.9994162 207.64634559 15.62761307 207.6575985 C28.00180034 207.67384181 40.37567379 207.70702524 52.74974275 207.76399934 C61.44534636 207.80267443 70.14086596 207.82222831 78.83655334 207.82751906 C84.03251767 207.83117587 89.22814747 207.84323215 94.42401886 207.8756218 C99.31275995 207.90565951 104.20096335 207.91202958 109.08977699 207.90023804 C110.88366765 207.90001694 112.67758294 207.90835173 114.47138786 207.92589188 C116.92210514 207.94855009 119.37086712 207.94030569 121.82159424 207.92440796 C122.53036028 207.93829005 123.23912632 207.95217213 123.96937013 207.96647489 C129.56473473 207.87713316 131.85426032 206.16104872 135.62890625 202.31640625 C137.52198277 198.24062811 137.87018837 194.72077163 137.82421875 190.26171875 C137.81777344 189.153125 137.81132812 188.04453125 137.8046875 186.90234375 C137.78792969 185.76023437 137.77117187 184.618125 137.75390625 183.44140625 C137.74488281 182.27609375 137.73585937 181.11078125 137.7265625 179.91015625 C137.70308057 177.04536048 137.67023766 174.1809909 137.62890625 171.31640625 C136.99378616 171.31276062 136.35866608 171.30911499 135.70429993 171.30535889 C129.0354988 171.2632316 122.36736669 171.19367849 115.69897461 171.10888672 C113.21727217 171.08083031 110.73548291 171.05954035 108.25366211 171.04541016 C104.66605669 171.02376765 101.07947849 170.97700799 97.4921875 170.92578125 C96.39997391 170.92455261 95.30776031 170.92332397 94.18244934 170.92205811 C82.862956 170.71151089 72.01672143 168.28195156 63.62890625 160.31640625 C63.07589844 159.79175781 62.52289063 159.26710938 61.953125 158.7265625 C54.90615878 151.29489837 52.216441 141.25826358 52.3515625 131.19921875 C53.22612041 122.10874361 56.32813568 113.95119358 62.62890625 107.31640625 C63.41587891 106.48689453 63.41587891 106.48689453 64.21875 105.640625 C71.25618891 98.96747705 80.52270753 96.27044776 90.06176758 96.11108398 C91.65285088 96.08116615 91.65285088 96.08116615 93.27607727 96.05064392 C94.97633308 96.02557518 94.97633308 96.02557518 96.7109375 96 C97.88025314 95.9792189 99.04956879 95.95843781 100.25431824 95.93702698 C103.98328878 95.87173211 107.71232872 95.81273966 111.44140625 95.75390625 C113.97201234 95.71070196 116.50261145 95.66708706 119.03320312 95.62304688 C125.23169783 95.51607125 131.43026131 95.41426777 137.62890625 95.31640625 C137.6872202 91.27480069 137.72260837 87.2333042 137.75390625 83.19140625 C137.77904297 81.47824219 137.77904297 81.47824219 137.8046875 79.73046875 C137.81435547 78.06757812 137.81435547 78.06757812 137.82421875 76.37109375 C137.8399292 74.84718018 137.8399292 74.84718018 137.85595703 73.29248047 C137.51506687 68.82425353 136.57623035 65.41174974 133.62890625 62.00390625 C129.98070891 58.92573974 126.90937247 59.16568248 122.32952881 59.1625061 C121.56842906 59.15812385 120.80732932 59.1537416 120.02316594 59.14922655 C117.45912641 59.1358147 114.89512127 59.12965435 112.33105469 59.12353516 C110.4981521 59.11563606 108.66525106 59.10736723 106.83235168 59.09875488 C100.80101003 59.07251231 94.76966135 59.05722495 88.73828125 59.04296875 C86.66376999 59.03760998 84.58925878 59.03223247 82.51474762 59.0268364 C73.88657102 59.00520433 65.2583963 58.98646691 56.63019943 58.975214 C44.25601216 58.95897069 31.88213871 58.92578726 19.50806975 58.86881316 C10.81246614 58.83013807 2.11694654 58.81058419 -6.57874084 58.80529344 C-11.77470517 58.80163663 -16.97033497 58.78958035 -22.16620636 58.7571907 C-27.05494745 58.72715299 -31.94315085 58.72078292 -36.83196449 58.73257446 C-38.62585515 58.73279556 -40.41977044 58.72446077 -42.21357536 58.70692062 C-44.66429264 58.68426241 -47.11305462 58.69250681 -49.56378174 58.70840454 C-50.27254778 58.69452245 -50.98131382 58.68064037 -51.71155763 58.66633761 C-57.29826736 58.75554115 -59.58116262 60.50813759 -63.37109375 64.31640625 Z M68.03515625 118.2890625 C63.563701 124.73541048 62.70190325 130.65809735 63.62890625 138.31640625 C65.39699285 145.54661753 68.68560653 150.8440411 74.62890625 155.31640625 C82.57403323 159.8435853 90.46234026 159.84878772 99.38671875 159.70703125 C100.78489363 159.6995534 102.18307912 159.69386779 103.58126831 159.68988037 C107.22780255 159.67474497 110.8736803 159.6355716 114.5199585 159.59106445 C118.25409917 159.5498472 121.98835105 159.53159284 125.72265625 159.51171875 C133.02531578 159.47119345 140.32618223 159.39287456 147.62890625 159.31640625 C147.62890625 142.15640625 147.62890625 124.99640625 147.62890625 107.31640625 C136.49810948 107.17072568 136.49810948 107.17072568 125.3671875 107.07226562 C120.82017463 107.04249528 116.2736701 107.00746362 111.72705078 106.93920898 C108.05708665 106.88446617 104.38766836 106.85489821 100.71732712 106.84202003 C99.32437941 106.83285509 97.93145808 106.81495964 96.53874588 106.78775597 C84.53164554 106.56277242 75.70542807 108.57459088 68.03515625 118.2890625 Z " fill="#91C72F" transform="translate(86.37109375,19.68359375)"/>
<path d="M0 0 C3.9597572 4.05633665 4.86550167 6.84093106 4.9375 12.5 C4.83613418 17.70766907 4.26198398 20.73080633 0.5625 24.625 C-3.25680172 28.25333663 -6.32029006 28.93500458 -11.4375 29.125 C-18.1287538 28.87656236 -21.23884327 26.9393755 -25.8125 22.125 C-28.21053575 16.95999991 -28.19131535 12.2247712 -27.4375 6.625 C-24.84851482 1.04872424 -20.85624649 -2.08142025 -15.125 -4.25 C-9.58751202 -4.50755758 -4.40111086 -3.4949998 0 0 Z M-14.6875 9.5625 C-15.55375 10.5834375 -15.55375 10.5834375 -16.4375 11.625 C-15.38275335 15.31960876 -15.38275335 15.31960876 -12.5625 17.6875 C-10.21133252 17.84165306 -10.21133252 17.84165306 -8.1875 15.6875 C-7.61 15.006875 -7.0325 14.32625 -6.4375 13.625 C-7.49224665 9.93039124 -7.49224665 9.93039124 -10.3125 7.5625 C-12.66366748 7.40834694 -12.66366748 7.40834694 -14.6875 9.5625 Z " fill="#91C72F" transform="translate(187.4375,140.375)"/>
<path d="M0 0 C0.8644725 -0.00953201 1.72894501 -0.01906403 2.61961365 -0.02888489 C3.54572952 -0.02797348 4.4718454 -0.02706207 5.42602539 -0.02612305 C6.38513321 -0.03040817 7.34424103 -0.0346933 8.33241272 -0.03910828 C10.35897025 -0.04484614 12.38554837 -0.04535584 14.41210938 -0.04101562 C17.50890316 -0.03785687 20.60474038 -0.0613176 23.70141602 -0.08666992 C25.67211794 -0.08894312 27.64282242 -0.08964632 29.61352539 -0.08862305 C30.99966286 -0.10243767 30.99966286 -0.10243767 32.4138031 -0.11653137 C40.85571712 -0.05592577 40.85571712 -0.05592577 44.58618164 3.2746582 C45.02368164 6.8371582 45.02368164 6.8371582 44.58618164 10.2746582 C42.09889113 12.76194871 41.33914377 12.53087344 37.90869141 12.54931641 C36.45191734 12.56361443 36.45191734 12.56361443 34.9657135 12.57820129 C33.91363205 12.57728989 32.8615506 12.57637848 31.77758789 12.57543945 C30.69992661 12.57972458 29.62226532 12.5840097 28.51194763 12.58842468 C26.22965193 12.59417546 23.9473379 12.59466277 21.66503906 12.59033203 C18.16643083 12.58717422 14.66866947 12.61061522 11.17016602 12.63598633 C8.95597438 12.63825939 6.74178046 12.63896279 4.52758789 12.63793945 C3.47753067 12.6471492 2.42747345 12.65635895 1.34559631 12.66584778 C0.37126144 12.65961899 -0.60307343 12.6533902 -1.60693359 12.64697266 C-2.89361183 12.64791679 -2.89361183 12.64791679 -4.20628357 12.64888 C-6.41381836 12.2746582 -6.41381836 12.2746582 -8.21815491 10.9740448 C-9.41381836 9.2746582 -9.41381836 9.2746582 -9.35131836 5.7121582 C-8.41381836 2.2746582 -8.41381836 2.2746582 -6.63108826 1.07698059 C-4.26847336 0.2220649 -2.50584134 0.01523758 0 0 Z " fill="#91C62F" transform="translate(51.413818359375,119.725341796875)"/>
<path d="M0 0 C1.20140625 -0.01611328 2.4028125 -0.03222656 3.640625 -0.04882812 C4.79046875 -0.04947266 5.9403125 -0.05011719 7.125 -0.05078125 C8.17945312 -0.05376221 9.23390625 -0.05674316 10.3203125 -0.05981445 C13 0.3125 13 0.3125 14.83984375 1.64770508 C16.66916857 4.27274 16.45193534 6.21351481 16 9.3125 C12.08410841 13.20606414 8.19640761 12.73146564 2.95703125 12.77148438 C1.81621094 12.76439453 0.67539062 12.75730469 -0.5 12.75 C-1.64082031 12.76998047 -2.78164063 12.78996094 -3.95703125 12.81054688 C-5.05402344 12.80990234 -6.15101562 12.80925781 -7.28125 12.80859375 C-8.28220703 12.81044678 -9.28316406 12.8122998 -10.31445312 12.81420898 C-13.71989906 12.17800977 -14.92952785 11.04711495 -17 8.3125 C-16.9375 5.1875 -16.9375 5.1875 -16 2.3125 C-11.12873683 -0.93500878 -5.72409973 -0.01535434 0 0 Z " fill="#91C730" transform="translate(59,98.6875)"/>
</svg>
